<?xml version="1.0" encoding="UTF-8"?>
<svg id="Capa_2" data-name="Capa 2" xmlns="http://www.w3.org/2000/svg" viewBox="0 0 1906.4 1059.19">
  <defs>
    <style>
      .cls-1 {
        fill: none;
        stroke: #282e37;
        stroke-miterlimit: 10;
        stroke-width: 4px;
      }
    </style>
  </defs>
  <g id="Capa_1-2" data-name="Capa 1">
    <g>
      <path class="cls-1" d="M1772.72,17.4l-9.59-13.18c-1.76-2.42-5.09-2.94-7.3-1.15l-43.25,35.07c-1.81,1.47-2.11,4.18-.66,6.17l6.89,9.48c1.44,1.98,4.11,2.54,6.07,1.27l46.69-30.35c2.39-1.55,2.92-4.88,1.16-7.3Z"/>
      <path class="cls-1" d="M1649.61,30.68c-23.79,17.31-29.14,50.55-12.04,74.43,17.55,24.52,51.97,29.37,76.12,11.31,10.06-7.52,16.51-15.17,20.65-21.86,5.75-9.29,3.53-21.42-5.06-28.16-4.9-3.84-10.4-9.12-15.73-16.06-5.17-6.72-8.4-13.51-10.44-19.41-3.64-10.55-14.7-16.63-25.52-13.91-7.87,1.97-17.42,5.97-27.99,13.65Z"/>
      <path class="cls-1" d="M1729.28,66.41s-3.26-12.14,6.95-18.84"/>
      <path class="cls-1" d="M1703,30.51s10.81,6.67,20.33-.97"/>
    </g>
    <g>
      <path class="cls-1" d="M1615.81,473.01l14.09-8.21c2.58-1.51,3.44-4.77,1.88-7.15l-30.52-46.57c-1.28-1.95-3.95-2.52-6.07-1.28l-10.12,5.9c-2.12,1.23-2.94,3.84-1.87,5.91l25.48,49.51c1.3,2.53,4.56,3.39,7.15,1.89Z"/>
      <path class="cls-1" d="M1615.03,349.18c-14.82-25.42-47.35-34.1-72.84-19.5-26.17,14.99-34.47,48.74-18.95,74.59,6.46,10.77,13.42,17.96,19.66,22.76,8.66,6.65,20.95,5.68,28.53-2.19,4.32-4.48,10.13-9.42,17.56-14.03,7.21-4.46,14.29-6.99,20.36-8.42,10.86-2.56,18.03-12.95,16.42-23.99-1.17-8.03-4.18-17.93-10.75-29.22Z"/>
      <path class="cls-1" d="M1571.44,424.84s12.41-2.01,18.04,8.81"/>
      <path class="cls-1" d="M1609.81,402.32s-7.73,10.08-1.09,20.32"/>
    </g>
    <g>
      <path class="cls-1" d="M808.33,161.98l12.12,10.91c2.22,2,5.59,1.82,7.38-.39l35.03-43.29c1.47-1.82,1.19-4.53-.63-6.17l-8.71-7.84c-1.82-1.64-4.55-1.63-6.2.02l-39.37,39.38c-2.01,2.01-1.84,5.38.38,7.38Z"/>
      <path class="cls-1" d="M926.01,123.42c19.68-21.87,18.01-55.5-3.68-75.31-22.26-20.34-56.94-17.94-76.81,4.74-8.28,9.44-13,18.26-15.66,25.67-3.69,10.28.99,21.69,10.8,26.5,5.59,2.74,12.07,6.77,18.72,12.44,6.45,5.5,11.02,11.47,14.24,16.82,5.75,9.56,17.83,13.21,27.86,8.31,7.29-3.56,15.8-9.45,24.54-19.16Z"/>
      <path class="cls-1" d="M840.65,105.01s5.71,11.2-2.88,19.87"/>
      <path class="cls-1" d="M873.81,134.67s-11.96-4.28-19.68,5.17"/>
    </g>
    <g>
      <path class="cls-1" d="M395.32,32.66l-9.59-13.18c-1.76-2.42-5.09-2.94-7.3-1.15l-43.25,35.07c-1.81,1.47-2.11,4.18-.66,6.17l6.89,9.48c1.44,1.98,4.11,2.54,6.07,1.27l46.69-30.35c2.39-1.55,2.92-4.88,1.16-7.3Z"/>
      <path class="cls-1" d="M272.2,45.95c-23.79,17.31-29.14,50.55-12.04,74.43,17.55,24.52,51.97,29.37,76.12,11.31,10.06-7.52,16.51-15.17,20.65-21.86,5.75-9.29,3.53-21.42-5.06-28.16-4.9-3.84-10.4-9.12-15.73-16.06-5.17-6.72-8.4-13.51-10.44-19.41-3.64-10.55-14.7-16.63-25.52-13.91-7.87,1.97-17.42,5.97-27.99,13.65Z"/>
      <path class="cls-1" d="M351.88,81.68s-3.26-12.14,6.95-18.84"/>
      <path class="cls-1" d="M325.6,45.78s10.81,6.67,20.33-.97"/>
    </g>
    <g>
      <path class="cls-1" d="M296.27,262.31l-11.91,11.13c-2.19,2.04-2.3,5.41-.25,7.39l40.09,38.65c1.68,1.62,4.41,1.58,6.2-.09l8.56-8c1.79-1.67,2.02-4.39.52-6.18l-35.82-42.63c-1.83-2.18-5.2-2.3-7.39-.26Z"/>
      <path class="cls-1" d="M324.48,382.88c20.08,21.5,53.73,22.75,75.35,2.86,22.2-20.42,22.81-55.17,1.94-76.94-8.69-9.06-17.07-14.54-24.22-17.83-9.92-4.57-21.69-.89-27.33,8.46-3.22,5.33-7.79,11.43-14.02,17.57-6.04,5.95-12.38,9.99-17.99,12.73-10.02,4.9-14.71,16.62-10.69,27.03,2.92,7.57,8.05,16.56,16.96,26.11Z"/>
      <path class="cls-1" d="M350.22,299.44s-11.65,4.71-19.55-4.59"/>
      <path class="cls-1" d="M317.8,329.91s5.3-11.54-3.44-20.05"/>
    </g>
    <g>
      <path class="cls-1" d="M37.14,269.18l12.12,10.91c2.22,2,5.59,1.82,7.38-.39l35.03-43.29c1.47-1.82,1.19-4.53-.63-6.17l-8.71-7.84c-1.82-1.64-4.55-1.63-6.2.02l-39.37,39.38c-2.01,2.01-1.84,5.38.38,7.38Z"/>
      <path class="cls-1" d="M154.81,230.62c19.68-21.87,18.01-55.5-3.68-75.31-22.26-20.34-56.94-17.94-76.81,4.74-8.28,9.44-13,18.26-15.66,25.67-3.69,10.28.99,21.69,10.8,26.5,5.59,2.74,12.07,6.77,18.72,12.44,6.45,5.5,11.02,11.47,14.24,16.82,5.75,9.56,17.83,13.21,27.86,8.31,7.29-3.56,15.8-9.45,24.54-19.16Z"/>
      <path class="cls-1" d="M69.45,212.22s5.71,11.2-2.88,19.87"/>
      <path class="cls-1" d="M102.61,241.88s-11.96-4.28-19.68,5.17"/>
    </g>
    <g>
      <path class="cls-1" d="M170.57,567.8l16.04-2.94c2.94-.54,4.86-3.31,4.2-6.08l-12.89-54.17c-.54-2.27-2.86-3.71-5.27-3.27l-11.53,2.11c-2.41.44-4.07,2.61-3.77,4.92l7.14,55.22c.37,2.83,3.14,4.74,6.08,4.2Z"/>
      <path class="cls-1" d="M211.9,451.08c-5.3-28.94-32.95-48.15-61.88-43.08-29.71,5.21-48.98,34.13-43.16,63.72,2.42,12.32,6.52,21.45,10.76,28.08,5.88,9.2,17.78,12.46,27.58,7.63,5.58-2.75,12.73-5.42,21.28-7.23,8.29-1.75,15.81-1.72,22.02-1.01,11.08,1.28,21.35-6.05,23.59-16.98,1.63-7.95,2.17-18.29-.19-31.14Z"/>
      <path class="cls-1" d="M145.2,507.43s12.35,2.32,13.98,14.42"/>
      <path class="cls-1" d="M188.94,499.28s-10.7,6.85-7.93,18.74"/>
    </g>
    <g>
      <path class="cls-1" d="M325.62,537.44l-12.61,10.33c-2.31,1.89-2.65,5.25-.73,7.36l37.49,41.17c1.57,1.73,4.3,1.86,6.2.31l9.07-7.42c1.9-1.55,2.3-4.25.92-6.13l-32.97-44.87c-1.69-2.3-5.04-2.63-7.35-.74Z"/>
      <path class="cls-1" d="M345.92,659.6c18.64,22.76,52.14,26.2,75,7.76,23.48-18.93,26.35-53.57,6.94-76.65-8.08-9.61-16.09-15.62-23.01-19.37-9.6-5.21-21.59-2.3-27.82,6.66-3.56,5.11-8.51,10.9-15.13,16.62-6.41,5.54-13,9.16-18.78,11.53-10.32,4.24-15.76,15.63-12.43,26.28,2.42,7.74,6.95,17.05,15.23,27.16Z"/>
      <path class="cls-1" d="M377.03,578.01s-11.93,3.95-19.21-5.86"/>
      <path class="cls-1" d="M342.7,606.3s6.04-11.17-2.13-20.24"/>
    </g>
    <g>
      <path class="cls-1" d="M73.87,832.51l15.04,6.29c2.76,1.15,5.88-.13,6.84-2.81l18.76-52.43c.79-2.2-.37-4.67-2.63-5.62l-10.81-4.52c-2.26-.95-4.83-.04-5.85,2.07l-24.14,50.18c-1.24,2.57.04,5.69,2.8,6.84Z"/>
      <path class="cls-1" d="M172.19,757.23c11.35-27.15-1.34-58.33-28.36-69.87-27.74-11.84-59.67,1.88-70.93,29.86-4.69,11.65-6.24,21.54-6.3,29.41-.09,10.92,8.1,20.14,18.95,21.44,6.18.74,13.62,2.4,21.78,5.56,7.91,3.06,14.19,7.18,19,11.17,8.59,7.12,21.2,6.58,29.04-1.36,5.7-5.77,11.79-14.14,16.83-26.2Z"/>
      <path class="cls-1" d="M85.54,768.07s9.09,8.68,3.85,19.71"/>
      <path class="cls-1" d="M126.64,785.1s-12.7-.09-16.87,11.38"/>
    </g>
    <g>
      <path class="cls-1" d="M323.06,980.68l14.09-8.21c2.58-1.51,3.44-4.77,1.88-7.15l-30.52-46.57c-1.28-1.95-3.95-2.52-6.07-1.28l-10.12,5.9c-2.12,1.23-2.94,3.84-1.87,5.91l25.48,49.51c1.3,2.53,4.56,3.39,7.15,1.89Z"/>
      <path class="cls-1" d="M322.28,856.85c-14.82-25.42-47.35-34.1-72.84-19.5-26.17,14.99-34.47,48.74-18.95,74.59,6.46,10.77,13.42,17.96,19.66,22.76,8.66,6.65,20.95,5.68,28.53-2.19,4.32-4.48,10.13-9.42,17.56-14.03,7.21-4.46,14.29-6.99,20.36-8.42,10.86-2.56,18.03-12.95,16.42-23.99-1.17-8.03-4.18-17.93-10.75-29.22Z"/>
      <path class="cls-1" d="M278.69,932.51s12.41-2.01,18.04,8.81"/>
      <path class="cls-1" d="M317.06,909.99s-7.73,10.08-1.09,20.32"/>
    </g>
    <g>
      <path class="cls-1" d="M3.83,1045.08l12.25,10.76c2.25,1.97,5.61,1.76,7.38-.48l34.52-43.7c1.45-1.83,1.14-4.54-.7-6.16l-8.8-7.74c-1.84-1.62-4.57-1.58-6.2.09l-38.9,39.84c-1.99,2.04-1.78,5.4.47,7.38Z"/>
      <path class="cls-1" d="M121.05,1005.14c19.42-22.1,17.35-55.71-4.56-75.26-22.5-20.08-57.14-17.27-76.75,5.64-8.17,9.54-12.79,18.42-15.36,25.86-3.57,10.32,1.25,21.67,11.11,26.37,5.62,2.68,12.14,6.62,18.86,12.22,6.51,5.42,11.16,11.34,14.44,16.65,5.86,9.49,17.99,13,27.95,7.98,7.24-3.65,15.69-9.64,24.31-19.45Z"/>
      <path class="cls-1" d="M35.48,987.74s5.84,11.13-2.65,19.91"/>
      <path class="cls-1" d="M68.98,1017.01s-12.01-4.14-19.62,5.4"/>
    </g>
    <g>
      <path class="cls-1" d="M461.93,818.79l9.59,13.18c1.76,2.42,5.09,2.94,7.3,1.15l43.25-35.07c1.81-1.47,2.11-4.18.66-6.17l-6.89-9.48c-1.44-1.98-4.11-2.54-6.07-1.27l-46.69,30.35c-2.39,1.55-2.92,4.88-1.16,7.3Z"/>
      <path class="cls-1" d="M585.05,805.51c23.79-17.31,29.14-50.55,12.04-74.43-17.55-24.52-51.97-29.37-76.12-11.31-10.06,7.52-16.51,15.17-20.65,21.86-5.75,9.29-3.53,21.42,5.06,28.16,4.9,3.84,10.4,9.12,15.73,16.06,5.17,6.72,8.4,13.51,10.44,19.41,3.64,10.55,14.7,16.63,25.52,13.91,7.87-1.97,17.42-5.97,27.99-13.65Z"/>
      <path class="cls-1" d="M505.37,769.78s3.26,12.14-6.95,18.84"/>
      <path class="cls-1" d="M531.65,805.68s-10.81-6.67-20.33.97"/>
    </g>
    <g>
      <path class="cls-1" d="M631.31,521.81l12.68-10.25c2.33-1.88,2.68-5.23.77-7.35l-37.24-41.4c-1.56-1.74-4.29-1.89-6.19-.35l-9.11,7.37c-1.91,1.54-2.33,4.24-.95,6.13l32.7,45.07c1.67,2.31,5.02,2.66,7.35.78Z"/>
      <path class="cls-1" d="M611.73,399.54c-18.5-22.88-51.98-26.51-74.95-8.21-23.59,18.79-26.67,53.41-7.4,76.6,8.02,9.66,15.99,15.71,22.89,19.51,9.57,5.26,21.57,2.43,27.86-6.5,3.59-5.09,8.58-10.85,15.23-16.53,6.45-5.51,13.06-9.08,18.85-11.42,10.35-4.18,15.85-15.54,12.59-26.2-2.37-7.76-6.85-17.09-15.07-27.25Z"/>
      <path class="cls-1" d="M580.14,480.94s11.96-3.87,19.17,5.97"/>
      <path class="cls-1" d="M614.64,452.85s-6.11,11.14,2.01,20.25"/>
    </g>
    <g>
      <path class="cls-1" d="M827.22,527.62l-12.12-10.91c-2.22-2-5.59-1.82-7.38.39l-35.03,43.29c-1.47,1.82-1.19,4.53.63,6.17l8.71,7.84c1.82,1.64,4.55,1.63,6.2-.02l39.37-39.38c2.01-2.01,1.84-5.38-.38-7.38Z"/>
      <path class="cls-1" d="M709.55,566.18c-19.68,21.87-18.01,55.5,3.68,75.31,22.26,20.34,56.94,17.94,76.81-4.74,8.28-9.44,13-18.26,15.66-25.67,3.69-10.28-.99-21.69-10.8-26.5-5.59-2.74-12.07-6.77-18.72-12.44-6.45-5.5-11.02-11.47-14.24-16.82-5.75-9.56-17.83-13.21-27.86-8.31-7.29,3.56-15.8,9.45-24.54,19.16Z"/>
      <path class="cls-1" d="M794.91,584.59s-5.71-11.2,2.88-19.87"/>
      <path class="cls-1" d="M761.75,554.93s11.96,4.28,19.68-5.17"/>
    </g>
    <g>
      <path class="cls-1" d="M726.71,195.57l-16.04,2.94c-2.94.54-4.86,3.31-4.2,6.08l12.89,54.17c.54,2.27,2.86,3.71,5.27,3.27l11.53-2.11c2.41-.44,4.07-2.61,3.77-4.92l-7.14-55.22c-.37-2.83-3.14-4.74-6.08-4.2Z"/>
      <path class="cls-1" d="M685.38,312.3c5.3,28.94,32.95,48.15,61.88,43.08,29.71-5.21,48.98-34.13,43.16-63.72-2.42-12.32-6.52-21.45-10.76-28.08-5.88-9.2-17.78-12.46-27.58-7.63-5.58,2.75-12.73,5.42-21.28,7.23-8.29,1.75-15.81,1.72-22.02,1.01-11.08-1.28-21.35,6.05-23.59,16.98-1.63,7.95-2.17,18.29.19,31.14Z"/>
      <path class="cls-1" d="M752.08,255.95s-12.35-2.32-13.98-14.42"/>
      <path class="cls-1" d="M708.34,264.09s10.7-6.85,7.93-18.74"/>
    </g>
    <g>
      <path class="cls-1" d="M571.66,225.93l12.61-10.33c2.31-1.89,2.65-5.25.73-7.36l-37.49-41.17c-1.57-1.73-4.3-1.86-6.2-.31l-9.07,7.42c-1.9,1.55-2.3,4.25-.92,6.13l32.97,44.87c1.69,2.3,5.04,2.63,7.35.74Z"/>
      <path class="cls-1" d="M551.35,103.78c-18.64-22.76-52.14-26.2-75-7.76-23.48,18.93-26.35,53.57-6.94,76.65,8.08,9.61,16.09,15.62,23.01,19.37,9.6,5.21,21.59,2.3,27.82-6.66,3.56-5.11,8.51-10.9,15.13-16.62,6.41-5.54,13-9.16,18.78-11.53,10.32-4.24,15.76-15.63,12.43-26.28-2.42-7.74-6.95-17.05-15.23-27.16Z"/>
      <path class="cls-1" d="M520.24,185.37s11.93-3.95,19.21,5.86"/>
      <path class="cls-1" d="M554.58,157.08s-6.04,11.17,2.13,20.24"/>
    </g>
    <g>
      <path class="cls-1" d="M1244.48,378.46l12.12,10.91c2.22,2,5.59,1.82,7.38-.39l35.03-43.29c1.47-1.82,1.19-4.53-.63-6.17l-8.71-7.84c-1.82-1.64-4.55-1.63-6.2.02l-39.37,39.38c-2.01,2.01-1.84,5.38.38,7.38Z"/>
      <path class="cls-1" d="M1362.15,339.9c19.68-21.87,18.01-55.5-3.68-75.31-22.26-20.34-56.94-17.94-76.81,4.74-8.28,9.44-13,18.26-15.66,25.67-3.69,10.28.99,21.69,10.8,26.5,5.59,2.74,12.07,6.77,18.72,12.44,6.45,5.5,11.02,11.47,14.24,16.82,5.75,9.56,17.83,13.21,27.86,8.31,7.29-3.56,15.8-9.45,24.54-19.16Z"/>
      <path class="cls-1" d="M1276.79,321.49s5.71,11.2-2.88,19.87"/>
      <path class="cls-1" d="M1309.96,351.15s-11.96-4.28-19.68,5.17"/>
    </g>
    <g>
      <path class="cls-1" d="M1067.45,738.29l12.68-10.25c2.33-1.88,2.68-5.23.77-7.35l-37.24-41.4c-1.56-1.74-4.29-1.89-6.19-.35l-9.11,7.37c-1.91,1.54-2.33,4.24-.95,6.13l32.7,45.07c1.67,2.31,5.02,2.66,7.35.78Z"/>
      <path class="cls-1" d="M1047.88,616.02c-18.5-22.88-51.98-26.51-74.95-8.21-23.59,18.79-26.67,53.41-7.4,76.6,8.02,9.66,15.99,15.71,22.89,19.51,9.57,5.26,21.57,2.43,27.86-6.5,3.59-5.09,8.58-10.85,15.23-16.53,6.45-5.51,13.06-9.08,18.85-11.42,10.35-4.18,15.85-15.54,12.59-26.2-2.37-7.76-6.85-17.09-15.07-27.25Z"/>
      <path class="cls-1" d="M1016.28,697.42s11.96-3.87,19.17,5.97"/>
      <path class="cls-1" d="M1050.79,669.33s-6.11,11.14,2.01,20.25"/>
    </g>
    <g>
      <path class="cls-1" d="M1296.28,710.67l-12.12-10.91c-2.22-2-5.59-1.82-7.38.39l-35.03,43.29c-1.47,1.82-1.19,4.53.63,6.17l8.71,7.84c1.82,1.64,4.55,1.63,6.2-.02l39.37-39.38c2.01-2.01,1.84-5.38-.38-7.38Z"/>
      <path class="cls-1" d="M1178.61,749.23c-19.68,21.87-18.01,55.5,3.68,75.31,22.26,20.34,56.94,17.94,76.81-4.74,8.28-9.44,13-18.26,15.66-25.67,3.69-10.28-.99-21.69-10.8-26.5-5.59-2.74-12.07-6.77-18.72-12.44-6.45-5.5-11.02-11.47-14.24-16.82-5.75-9.56-17.83-13.21-27.86-8.31-7.29,3.56-15.8,9.45-24.54,19.16Z"/>
      <path class="cls-1" d="M1263.97,767.64s-5.71-11.2,2.88-19.87"/>
      <path class="cls-1" d="M1230.81,737.98s11.96,4.28,19.68-5.17"/>
    </g>
    <g>
      <path class="cls-1" d="M1162.85,412.05l-16.04,2.94c-2.94.54-4.86,3.31-4.2,6.08l12.89,54.17c.54,2.27,2.86,3.71,5.27,3.27l11.53-2.11c2.41-.44,4.07-2.61,3.77-4.92l-7.14-55.22c-.37-2.83-3.14-4.74-6.08-4.2Z"/>
      <path class="cls-1" d="M1121.52,528.78c5.3,28.94,32.95,48.15,61.88,43.08,29.71-5.21,48.98-34.13,43.16-63.72-2.42-12.32-6.52-21.45-10.76-28.08-5.88-9.2-17.78-12.46-27.58-7.63-5.58,2.75-12.73,5.42-21.28,7.23-8.29,1.75-15.81,1.72-22.02,1.01-11.08-1.28-21.35,6.05-23.59,16.98-1.63,7.95-2.17,18.29.19,31.14Z"/>
      <path class="cls-1" d="M1188.22,472.43s-12.35-2.32-13.98-14.42"/>
      <path class="cls-1" d="M1144.49,480.58s10.7-6.85,7.93-18.74"/>
    </g>
    <g>
      <path class="cls-1" d="M1007.81,442.41l12.61-10.33c2.31-1.89,2.65-5.25.73-7.36l-37.49-41.17c-1.57-1.73-4.3-1.86-6.2-.31l-9.07,7.42c-1.9,1.55-2.3,4.25-.92,6.13l32.97,44.87c1.69,2.3,5.04,2.63,7.35.74Z"/>
      <path class="cls-1" d="M987.5,320.26c-18.64-22.76-52.14-26.2-75-7.76-23.48,18.93-26.35,53.57-6.94,76.65,8.08,9.61,16.09,15.62,23.01,19.37,9.6,5.21,21.59,2.3,27.82-6.66,3.56-5.11,8.51-10.9,15.13-16.62,6.41-5.54,13-9.16,18.78-11.53,10.32-4.24,15.76-15.63,12.43-26.28-2.42-7.74-6.95-17.05-15.23-27.16Z"/>
      <path class="cls-1" d="M956.39,401.85s11.93-3.95,19.21,5.86"/>
      <path class="cls-1" d="M990.72,373.56s-6.04,11.17,2.13,20.24"/>
    </g>
    <g>
      <path class="cls-1" d="M1108.46,280.26l14.09-8.21c2.58-1.51,3.44-4.77,1.88-7.15l-30.52-46.57c-1.28-1.95-3.95-2.52-6.07-1.28l-10.12,5.9c-2.12,1.23-2.94,3.84-1.87,5.91l25.48,49.51c1.3,2.53,4.56,3.39,7.15,1.89Z"/>
      <path class="cls-1" d="M1107.68,156.43c-14.82-25.42-47.35-34.1-72.84-19.5-26.17,14.99-34.47,48.74-18.95,74.59,6.46,10.77,13.42,17.96,19.66,22.76,8.66,6.65,20.95,5.68,28.53-2.19,4.32-4.48,10.13-9.42,17.56-14.03,7.21-4.46,14.29-6.99,20.36-8.42,10.86-2.56,18.03-12.95,16.42-23.99-1.17-8.03-4.18-17.93-10.75-29.22Z"/>
      <path class="cls-1" d="M1064.09,232.09s12.41-2.01,18.04,8.81"/>
      <path class="cls-1" d="M1102.46,209.57s-7.73,10.08-1.09,20.32"/>
    </g>
    <g>
      <path class="cls-1" d="M1232.67,173.84l13.6,8.99c2.5,1.65,5.8.97,7.24-1.48l28.21-48.01c1.18-2.01.51-4.66-1.54-6.01l-9.78-6.46c-2.05-1.35-4.74-.94-6.13.94l-33.09,44.79c-1.69,2.29-1.02,5.59,1.48,7.24Z"/>
      <path class="cls-1" d="M1343.32,118.24c16.22-24.55,9.57-57.56-14.81-73.93-25.04-16.81-58.97-9.29-75.26,16.09-6.78,10.57-10.15,19.99-11.68,27.71-2.13,10.71,4.2,21.3,14.61,24.6,5.93,1.88,12.94,4.9,20.36,9.52,7.2,4.48,12.6,9.7,16.58,14.52,7.11,8.6,19.6,10.42,28.78,4.08,6.68-4.61,14.22-11.69,21.42-22.59Z"/>
      <path class="cls-1" d="M1256.17,112.71s7.31,10.23.1,20.08"/>
      <path class="cls-1" d="M1293.37,137.12s-12.46-2.46-18.7,8.03"/>
    </g>
    <g>
      <path class="cls-1" d="M659.17,1032.07l12.68-10.25c2.33-1.88,2.68-5.23.77-7.35l-37.24-41.4c-1.56-1.74-4.29-1.89-6.19-.35l-9.11,7.37c-1.91,1.54-2.33,4.24-.95,6.13l32.7,45.07c1.67,2.31,5.02,2.66,7.35.78Z"/>
      <path class="cls-1" d="M639.6,909.8c-18.5-22.88-51.98-26.51-74.95-8.21-23.59,18.79-26.67,53.41-7.4,76.6,8.02,9.66,15.99,15.71,22.89,19.51,9.57,5.26,21.57,2.43,27.86-6.5,3.59-5.09,8.58-10.85,15.23-16.53,6.45-5.51,13.06-9.08,18.85-11.42,10.35-4.18,15.85-15.54,12.59-26.2-2.37-7.76-6.85-17.09-15.07-27.25Z"/>
      <path class="cls-1" d="M608,991.2s11.96-3.87,19.17,5.97"/>
      <path class="cls-1" d="M642.5,963.11s-6.11,11.14,2.01,20.25"/>
    </g>
    <g>
      <path class="cls-1" d="M971.8,898.27l-12.12-10.91c-2.22-2-5.59-1.82-7.38.39l-35.03,43.29c-1.47,1.82-1.19,4.53.63,6.17l8.71,7.84c1.82,1.64,4.55,1.63,6.2-.02l39.37-39.38c2.01-2.01,1.84-5.38-.38-7.38Z"/>
      <path class="cls-1" d="M854.13,936.83c-19.68,21.87-18.01,55.5,3.68,75.31,22.26,20.34,56.94,17.94,76.81-4.74,8.28-9.44,13-18.26,15.66-25.67,3.69-10.28-.99-21.69-10.8-26.5-5.59-2.74-12.07-6.77-18.72-12.44-6.45-5.5-11.02-11.47-14.24-16.82-5.75-9.56-17.83-13.21-27.86-8.31-7.29,3.56-15.8,9.45-24.54,19.16Z"/>
      <path class="cls-1" d="M939.49,955.23s-5.71-11.2,2.88-19.87"/>
      <path class="cls-1" d="M906.32,925.57s11.96,4.28,19.68-5.17"/>
    </g>
    <g>
      <path class="cls-1" d="M740.44,787.41l1.83,16.2c.34,2.97,2.97,5.07,5.78,4.6l54.93-9.14c2.3-.38,3.9-2.6,3.62-5.03l-1.31-11.64c-.28-2.44-2.32-4.24-4.65-4.1l-55.58,3.33c-2.84.17-4.95,2.8-4.61,5.78Z"/>
      <path class="cls-1" d="M854.05,836.65c29.24-3.3,50.3-29.57,47.23-58.78-3.15-29.99-30.69-51.21-60.61-47.43-12.46,1.57-21.85,5.03-28.76,8.81-9.58,5.24-13.65,16.88-9.51,26.99,2.36,5.76,4.54,13.07,5.75,21.73,1.17,8.4.63,15.89-.51,22.03-2.04,10.97,4.57,21.72,15.32,24.7,7.82,2.17,18.09,3.42,31.08,1.95Z"/>
      <path class="cls-1" d="M802.41,766.24s-3.16,12.16-15.35,12.95"/>
      <path class="cls-1" d="M807.54,810.43s-6.1-11.14-18.15-9.19"/>
    </g>
    <g>
      <path class="cls-1" d="M1162.82,1024.03l14.58-7.3c2.67-1.34,3.74-4.54,2.33-7.01l-27.49-48.42c-1.15-2.03-3.78-2.76-5.97-1.67l-10.48,5.24c-2.19,1.1-3.18,3.64-2.25,5.78l22.27,51.03c1.14,2.61,4.34,3.68,7.01,2.34Z"/>
      <path class="cls-1" d="M1169.93,900.41c-13.17-26.31-45.08-37.04-71.45-24.1-27.07,13.29-37.5,46.44-23.66,73.23,5.77,11.16,12.25,18.78,18.17,23.96,8.22,7.19,20.55,7,28.61-.37,4.59-4.2,10.71-8.76,18.42-12.88,7.48-3.99,14.7-6.07,20.86-7.11,11-1.86,18.82-11.77,17.91-22.89-.66-8.08-3.03-18.16-8.87-29.85Z"/>
      <path class="cls-1" d="M1121.6,973.14s12.51-1.22,17.45,9.95"/>
      <path class="cls-1" d="M1161.33,953.11s-8.36,9.57-2.38,20.21"/>
    </g>
    <g>
      <path class="cls-1" d="M1364.5,472.56l-11.02,12.01c-2.02,2.2-1.87,5.57.32,7.38l42.95,35.44c1.8,1.49,4.52,1.24,6.18-.57l7.92-8.63c1.66-1.81,1.68-4.54.04-6.2l-39-39.74c-2-2.03-5.36-1.89-7.38.31Z"/>
      <path class="cls-1" d="M1401.92,590.6c21.68,19.89,55.32,18.54,75.34-2.95,20.56-22.07,18.49-56.76-4-76.86-9.36-8.37-18.14-13.18-25.52-15.91-10.24-3.79-21.7.78-26.6,10.54-2.8,5.56-6.88,12-12.62,18.6-5.56,6.4-11.57,10.91-16.96,14.08-9.62,5.66-13.38,17.71-8.58,27.78,3.49,7.32,9.3,15.89,18.93,24.72Z"/>
      <path class="cls-1" d="M1421.15,505.42s-11.25,5.6-19.84-3.07"/>
      <path class="cls-1" d="M1391.17,538.3s4.4-11.92-4.98-19.73"/>
    </g>
    <g>
      <path class="cls-1" d="M1499.63,842.33l14.09-8.21c2.58-1.51,3.44-4.77,1.88-7.15l-30.52-46.57c-1.28-1.95-3.95-2.52-6.07-1.28l-10.12,5.9c-2.12,1.23-2.94,3.84-1.87,5.91l25.48,49.51c1.3,2.53,4.56,3.39,7.15,1.89Z"/>
      <path class="cls-1" d="M1498.84,718.51c-14.82-25.42-47.35-34.1-72.84-19.5-26.17,14.99-34.47,48.74-18.95,74.59,6.46,10.77,13.42,17.96,19.66,22.76,8.66,6.65,20.95,5.68,28.53-2.19,4.32-4.48,10.13-9.42,17.56-14.03,7.21-4.46,14.29-6.99,20.36-8.42,10.86-2.56,18.03-12.95,16.42-23.99-1.17-8.03-4.18-17.93-10.75-29.22Z"/>
      <path class="cls-1" d="M1455.25,794.17s12.41-2.01,18.04,8.81"/>
      <path class="cls-1" d="M1493.62,771.65s-7.73,10.08-1.09,20.32"/>
    </g>
    <g>
      <path class="cls-1" d="M1318.94,906.99l-11.46,11.6c-2.1,2.13-2.08,5.5.05,7.39l41.61,37c1.75,1.55,4.47,1.4,6.19-.34l8.23-8.34c1.72-1.74,1.84-4.47.27-6.2l-37.51-41.16c-1.92-2.11-5.29-2.09-7.39.04Z"/>
      <path class="cls-1" d="M1351.98,1026.33c20.93,20.68,54.6,20.57,75.4-.17,21.36-21.29,20.57-56.04-1.16-76.95-9.05-8.71-17.64-13.84-24.92-16.84-10.1-4.17-21.71-.02-26.97,9.55-3,5.46-7.32,11.74-13.3,18.12-5.79,6.19-11.97,10.48-17.46,13.44-9.82,5.3-14.03,17.2-9.6,27.44,3.22,7.44,8.71,16.23,18,25.41Z"/>
      <path class="cls-1" d="M1374.34,941.92s-11.45,5.18-19.72-3.8"/>
      <path class="cls-1" d="M1343.17,973.66s4.84-11.75-4.25-19.9"/>
    </g>
    <g>
      <path class="cls-1" d="M1713.57,591.68l-8.5-13.91c-1.56-2.55-4.84-3.34-7.19-1.73l-45.92,31.49c-1.93,1.32-2.43,4-1.16,6.09l6.11,10c1.28,2.09,3.9,2.86,5.95,1.75l48.97-26.51c2.51-1.36,3.3-4.63,1.74-7.18Z"/>
      <path class="cls-1" d="M1589.79,595.06c-25.1,15.35-33.09,48.06-17.96,73.23,15.53,25.85,49.45,33.44,74.97,17.37,10.63-6.69,17.67-13.8,22.34-20.14,6.47-8.8,5.24-21.07-2.79-28.48-4.57-4.22-9.63-9.93-14.39-17.26-4.61-7.11-7.29-14.13-8.85-20.18-2.78-10.8-13.32-17.75-24.33-15.91-8,1.34-17.84,4.55-28.99,11.37Z"/>
      <path class="cls-1" d="M1666.35,637.05s-2.27-12.36,8.43-18.22"/>
      <path class="cls-1" d="M1643.02,599.17s10.24,7.52,20.34.66"/>
    </g>
    <g>
      <path class="cls-1" d="M1427.18,142.8l-8.96,13.62c-1.64,2.5-.96,5.8,1.5,7.24l48.06,28.12c2.02,1.18,4.66.5,6.01-1.55l6.44-9.79c1.35-2.05.93-4.74-.95-6.13l-44.85-33c-2.29-1.69-5.6-1.01-7.24,1.49Z"/>
      <path class="cls-1" d="M1482.99,253.33c24.58,16.17,57.58,9.46,73.9-14.96,16.76-25.07,9.17-58.99-16.24-75.23-10.58-6.76-20.01-10.11-27.74-11.63-10.72-2.1-21.29,4.24-24.57,14.66-1.87,5.94-4.88,12.95-9.48,20.38-4.47,7.2-9.68,12.62-14.49,16.61-8.59,7.12-10.38,19.62-4.03,28.79,4.62,6.67,11.72,14.2,22.64,21.38Z"/>
      <path class="cls-1" d="M1488.35,166.17s-10.21,7.33-20.08.14"/>
      <path class="cls-1" d="M1464.02,203.42s2.44-12.47-8.07-18.68"/>
    </g>
    <g>
      <path class="cls-1" d="M1903.6,947.79l-8.5-13.91c-1.56-2.55-4.84-3.34-7.19-1.73l-45.92,31.49c-1.93,1.32-2.43,4-1.16,6.09l6.11,10c1.28,2.09,3.9,2.86,5.95,1.75l48.97-26.51c2.51-1.36,3.3-4.63,1.74-7.18Z"/>
      <path class="cls-1" d="M1779.82,951.17c-25.1,15.35-33.09,48.06-17.96,73.23,15.53,25.85,49.45,33.44,74.97,17.37,10.63-6.69,17.67-13.8,22.34-20.14,6.47-8.8,5.24-21.07-2.79-28.48-4.57-4.22-9.63-9.93-14.39-17.26-4.61-7.11-7.29-14.13-8.85-20.18-2.78-10.8-13.32-17.75-24.33-15.91-8,1.34-17.84,4.55-28.99,11.37Z"/>
      <path class="cls-1" d="M1856.38,993.16s-2.27-12.36,8.43-18.22"/>
      <path class="cls-1" d="M1833.06,955.27s10.24,7.52,20.34.66"/>
    </g>
    <g>
      <path class="cls-1" d="M1635.53,891.59l-16.22-1.66c-2.98-.3-5.59,1.82-5.73,4.67l-2.76,55.62c-.12,2.33,1.71,4.36,4.15,4.61l11.66,1.19c2.44.25,4.64-1.37,5-3.67l8.57-55.02c.44-2.82-1.69-5.43-4.66-5.73Z"/>
      <path class="cls-1" d="M1563.24,992.12c-3,29.27,18.19,55.44,47.38,58.65s56.56-19.09,59.24-49.13c1.12-12.51-.27-22.42-2.49-29.97-3.08-10.48-13.59-16.93-24.35-15.03-6.13,1.08-13.73,1.65-22.45.99-8.45-.64-15.66-2.76-21.42-5.18-10.28-4.33-22.19-.15-27.4,9.72-3.78,7.18-7.19,16.95-8.52,29.95Z"/>
      <path class="cls-1" d="M1643.02,956.65s-11.21-5.68-9.39-17.75"/>
      <path class="cls-1" d="M1598.75,952.25s12.18-3.59,12.85-15.78"/>
    </g>
    <g>
      <path class="cls-1" d="M1694.73,739.76l-9.96,12.91c-1.83,2.37-1.39,5.71.95,7.33l45.81,31.66c1.92,1.33,4.61.85,6.11-1.1l7.16-9.28c1.5-1.94,1.28-4.66-.49-6.18l-42.24-36.28c-2.16-1.86-5.5-1.43-7.33.94Z"/>
      <path class="cls-1" d="M1742.07,854.18c23.3,17.97,56.7,13.76,74.82-9.36,18.6-23.74,13.59-58.13-10.53-76.24-10.04-7.54-19.19-11.59-26.78-13.68-10.53-2.9-21.55,2.63-25.6,12.77-2.31,5.78-5.84,12.54-10.99,19.61-5,6.85-10.6,11.86-15.69,15.47-9.1,6.46-11.83,18.78-6.18,28.41,4.1,7,10.62,15.04,20.96,23.02Z"/>
      <path class="cls-1" d="M1753.97,767.67s-10.74,6.54-20.03-1.37"/>
      <path class="cls-1" d="M1726.9,802.98s3.37-12.25-6.64-19.23"/>
    </g>
    <g>
      <path class="cls-1" d="M1833.94,217.67l-9.59-13.18c-1.76-2.42-5.09-2.94-7.3-1.15l-43.25,35.07c-1.81,1.47-2.11,4.18-.66,6.17l6.89,9.48c1.44,1.98,4.11,2.54,6.07,1.27l46.69-30.35c2.39-1.55,2.92-4.88,1.16-7.3Z"/>
      <path class="cls-1" d="M1710.83,230.96c-23.79,17.31-29.14,50.55-12.04,74.43,17.55,24.52,51.97,29.37,76.12,11.31,10.06-7.52,16.51-15.17,20.65-21.86,5.75-9.29,3.53-21.42-5.06-28.16-4.9-3.84-10.4-9.12-15.73-16.06-5.17-6.72-8.4-13.51-10.44-19.41-3.64-10.55-14.7-16.63-25.52-13.91-7.87,1.97-17.42,5.97-27.99,13.65Z"/>
      <path class="cls-1" d="M1790.5,266.69s-3.26-12.14,6.95-18.84"/>
      <path class="cls-1" d="M1764.22,230.79s10.81,6.67,20.33-.97"/>
    </g>
    <g>
      <path class="cls-1" d="M1821.62,378.47l-15.86,3.77c-2.91.69-4.67,3.56-3.87,6.3l15.71,53.42c.66,2.24,3.05,3.56,5.44,2.99l11.4-2.71c2.39-.57,3.93-2.82,3.51-5.12l-10.03-54.77c-.51-2.8-3.38-4.57-6.29-3.88Z"/>
      <path class="cls-1" d="M1786.47,497.2c6.81,28.62,35.43,46.36,64.05,39.78,29.39-6.76,47.12-36.65,39.76-65.89-3.07-12.18-7.64-21.08-12.22-27.48-6.36-8.88-18.41-11.51-27.94-6.17-5.43,3.04-12.43,6.08-20.87,8.33-8.19,2.18-15.7,2.55-21.93,2.16-11.14-.7-21.01,7.16-22.67,18.2-1.21,8.02-1.2,18.37,1.82,31.08Z"/>
      <path class="cls-1" d="M1850.12,437.43s-12.46-1.67-14.71-13.67"/>
      <path class="cls-1" d="M1806.87,447.86s10.32-7.4,6.93-19.13"/>
    </g>
    <circle class="cls-1" cx="667.78" cy="43.55" r="12.18"/>
    <circle class="cls-1" cx="771.99" cy="224.97" r="12.18"/>
    <circle class="cls-1" cx="1073.11" cy="338.01" r="12.18"/>
    <circle class="cls-1" cx="145.2" cy="83.85" r="12.18"/>
    <circle class="cls-1" cx="358.83" cy="243.83" r="12.18"/>
    <circle class="cls-1" cx="216.16" cy="525.09" r="12.18"/>
    <circle class="cls-1" cx="542.02" cy="564.71" r="12.18"/>
    <circle class="cls-1" cx="1023.28" cy="55.73" r="12.18"/>
    <circle class="cls-1" cx="580.14" cy="332.27" r="12.18"/>
    <circle class="cls-1" cx="962.95" cy="588.95" r="12.18"/>
    <circle class="cls-1" cx="1173.51" cy="602.01" r="12.18"/>
    <circle class="cls-1" cx="1395.49" cy="401.25" r="12.18"/>
    <circle class="cls-1" cx="1397.12" cy="241.29" r="12.18"/>
    <circle class="cls-1" cx="1480.36" cy="63.38" r="12.18"/>
    <circle class="cls-1" cx="1689.28" cy="153.15" r="12.18"/>
    <circle class="cls-1" cx="1638.69" cy="301.68" r="12.18"/>
    <circle class="cls-1" cx="1860.66" cy="60.12" r="12.18"/>
    <circle class="cls-1" cx="1658.27" cy="541.62" r="12.18"/>
    <circle class="cls-1" cx="1571.77" cy="742.38" r="12.18"/>
    <circle class="cls-1" cx="1863.93" cy="737.48" r="12.18"/>
    <circle class="cls-1" cx="1687.65" cy="938.24" r="12.18"/>
    <circle class="cls-1" cx="1279.6" cy="990.47" r="12.18"/>
    <circle class="cls-1" cx="809.53" cy="910.49" r="12.18"/>
    <circle class="cls-1" cx="515.73" cy="1026.38" r="12.18"/>
    <circle class="cls-1" cx="244.79" cy="974.15" r="12.18"/>
    <circle class="cls-1" cx="221.93" cy="719.53" r="12.18"/>
    <circle class="cls-1" cx="468.4" cy="748.91" r="12.18"/>
    <circle class="cls-1" cx="752.4" cy="688.51" r="12.18"/>
    <circle class="cls-1" cx="1044.56" cy="814.19" r="12.18"/>
    <circle class="cls-1" cx="1344.45" cy="643.19" r="12.18"/>
  </g>
</svg>