/* XPM */
static char *_79890a37b2b4fff9e3b95560a5c20f8aMseKIRh4RJlBoV7[] = {
/* columns rows colors chars-per-pixel */
"16 16 3 1 ",
"  c black",
". c #C84C0C",
"X c #FCD8A8",
/* pixels */
"................",
".              .",
".XX            .",
".XX.           .",
".XX.XXX        .",
".XX.XXX.       .",
".XX.XXX.XXX    .",
".XX.XXX.XXX.   .",
".XX.XXX.XXX.XXX.",
".XX.XXX.XXX.XXX.",
".XX.XXX.XXX.XXX.",
".XX.XXX.XXX.XXX.",
".XX.XXX.XXX.XXX.",
".XX.XXX.XXX.XXX.",
".XX.XXX.XXX.XXX.",
"................"
};
