/* XPM */
static char *a361ccc2d1764c518cd0fe32ba4c1fedP2v0moshEH6GNRHJ[] = {
/* columns rows colors chars-per-pixel */
"16 26 158 2 ",
"   c None",
".  c black",
"X  c #090009",
"o  c #140014",
"O  c #190019",
"+  c #200020",
"@  c #220022",
"#  c #004400",
"$  c #004C00",
"%  c #005000",
"&  c #005800",
"*  c #005900",
"=  c #005C00",
"-  c #015C01",
";  c #006A00",
":  c #007000",
">  c #017101",
",  c #475047",
"<  c #6C526C",
"1  c gray42",
"2  c #009000",
"3  c #009200",
"4  c #009300",
"5  c #009600",
"6  c #009700",
"7  c #01A401",
"8  c #01A701",
"9  c #00AA00",
"0  c #00AB00",
"q  c #00AC00",
"w  c #00AD00",
"e  c #0EA70E",
"r  c #00B300",
"t  c #00B400",
"y  c #00B700",
"u  c #00B900",
"i  c #0CB20C",
"p  c #29AA29",
"a  c #3FBD3F",
"s  c #00C300",
"d  c #00C400",
"f  c #00C900",
"g  c #00CD00",
"h  c #00CE00",
"j  c #00CF00",
"k  c #00D000",
"l  c #00D100",
"z  c #00D300",
"x  c #00D800",
"c  c #00DA00",
"v  c #15C715",
"b  c #10CD10",
"n  c #17DE17",
"m  c #00E100",
"M  c #00E200",
"N  c #00E500",
"B  c #00E600",
"V  c #04E404",
"C  c #00EA00",
"Z  c #00EE00",
"A  c #0AE50A",
"S  c #00F200",
"D  c #00F300",
"F  c #00F400",
"G  c #00F800",
"H  c #00F900",
"J  c #00FC00",
"K  c #00FD00",
"L  c #00FE00",
"P  c green",
"I  c #01FF01",
"U  c #03FD03",
"Y  c #04FD04",
"T  c #04FF04",
"R  c #07FD07",
"E  c #06FF06",
"W  c #07FF07",
"Q  c #0FF00F",
"!  c #0DF40D",
"~  c #08FF08",
"^  c #0EFD0E",
"/  c #0FFF0F",
"(  c #13FC13",
")  c #12FF12",
"_  c #15FF15",
"`  c #16FF16",
"'  c #17FF17",
"]  c #19F819",
"[  c #18FF18",
"{  c #1FFA1F",
"}  c #1CFF1C",
"|  c #1DFF1D",
" . c #2EDB2E",
".. c #3DC93D",
"X. c #21F621",
"o. c #21FF21",
"O. c #28FD28",
"+. c #28FE28",
"@. c #2AFF2A",
"#. c #32FE32",
"$. c #5BCA5B",
"%. c #42FE42",
"&. c #47FF47",
"*. c #4CFC4C",
"=. c #4CFF4C",
"-. c #4FFC4F",
";. c #51FF51",
":. c #58FD58",
">. c #78D678",
",. c #64FF64",
"<. c #72FF72",
"1. c #805380",
"2. c #8D8F8D",
"3. c #949294",
"4. c #9AA69A",
"5. c #A798A7",
"6. c #A0A4A0",
"7. c gray65",
"8. c #A7A8A7",
"9. c #A7ABA7",
"0. c gray66",
"q. c #A9A8A9",
"w. c #A9A9A9",
"e. c #ABA9AB",
"r. c #B1B2B1",
"t. c #93FF93",
"y. c #97FF97",
"u. c #A2FFA2",
"i. c #ABFDAB",
"p. c #B1FCB1",
"a. c #B3FFB3",
"s. c #B8F1B8",
"d. c #C3C0C3",
"f. c #D2CED2",
"g. c #DDDEDD",
"h. c #C0FCC0",
"j. c #C7FFC7",
"k. c #CCFFCC",
"l. c #D2FFD2",
"z. c #DAFFDA",
"x. c #DDFFDD",
"c. c #EBE3EB",
"v. c #E5FFE5",
"b. c #E6FFE6",
"n. c #E7FFE7",
"m. c #EAFFEA",
"M. c #EBFFEB",
"N. c #EFFFEF",
"B. c #F4F1F4",
"V. c #F2FDF2",
"C. c #F7FAF7",
"Z. c #F4FEF4",
"A. c #F8FFF8",
"S. c #FFF9FF",
"D. c #FFFDFF",
"F. c #FEFFFE",
"G. c #FFFEFF",
"H. c white",
/* pixels */
"            . . . X             ",
"            3.9.p 4             ",
"          . f.H.&.l O           ",
"      . 1 g.B.A.=.S n > .       ",
"      , 6.H.H.Z.=.P [ 7 #       ",
"    . c.H.C.H.H.;.P ] P Z .     ",
"  2.d.s.k.H.x.p.a x / g y d 4   ",
". r.H.,.%.H.u.F @ 5 P % & P r . ",
". 7.H.V.z.<.;.( ! f - c S P 9 . ",
". q.H.D.M.P P ) P g . C P P 9 . ",
". 0.H.D.b.P [ Y P g . B P P q . ",
". 0.H.D.b.P Y R P g . B P P 9 . ",
". 0.H.H.M.P Y ~ P g . B P P 9 . ",
". 0.H.H.b.P ~ ~ P g . B P P q . ",
". q.H.D.b.P ) Y P g . B P P 9 . ",
". 7.H.D.M.P P O.P b @ A P P q . ",
". e.H.i.y.N.t.J o.g . C ~ P 9 . ",
". 4.A.:.=.H.p.*.X...<  .F Y 9 . ",
". i [ | #.P l.D.. 5.H.1.- o.r . ",
"  4 s S ` J y.h.u >.j.$.y v 4   ",
"    o V P { P P Y P J P ! .     ",
"      & 7 P | O.P ` O.e $       ",
"      . ; M S P P S M > .       ",
"          . g P P l .           ",
"            5 q q 6             ",
"            . . . .             "
};
