/* XPM */
static char *_8f6f040230c4383fd1832b744f0a801Y6DB3iQhuQodZZsx[] = {
/* columns rows colors chars-per-pixel */
"16 16 138 2 ",
"   c None",
".  c black",
"X  c #010001",
"o  c #000A00",
"O  c #0B080B",
"+  c #034203",
"@  c #004400",
"#  c #004A00",
"$  c #015001",
"%  c #025302",
"&  c #005400",
"*  c #055305",
"=  c #005D00",
"-  c #165D16",
";  c #185B18",
":  c #006200",
">  c #016301",
",  c #006B00",
"<  c #006C00",
"1  c #086E08",
"2  c #047904",
"3  c #116111",
"4  c #297B29",
"5  c #4A3B4A",
"6  c #5A3D5A",
"7  c #545254",
"8  c #5A5B5A",
"9  c #5E625E",
"0  c #6B686B",
"q  c #008F00",
"w  c #019101",
"e  c #019601",
"r  c #009800",
"t  c #00AB00",
"y  c #00AD00",
"u  c #2FA92F",
"i  c #00C900",
"p  c #00CC00",
"a  c #00CE00",
"s  c #00CF00",
"d  c #04CE04",
"f  c #07CF07",
"g  c #0DCE0D",
"h  c #00D500",
"j  c #00DD00",
"k  c #09D509",
"l  c #0CDF0C",
"z  c #00E500",
"x  c #02E502",
"c  c #00E800",
"v  c #00E900",
"b  c #01ED01",
"n  c #01EE01",
"m  c #00F300",
"M  c #00F600",
"N  c #01F601",
"B  c #04F604",
"V  c #04F704",
"C  c #00F800",
"Z  c #00FC00",
"A  c #00FD00",
"S  c #00FE00",
"D  c green",
"F  c #01FF01",
"G  c #02FF02",
"H  c #05FF05",
"J  c #07FD07",
"K  c #08FF08",
"L  c #0DF90D",
"P  c #0CFD0C",
"I  c #0CFF0C",
"U  c #12F312",
"Y  c #12FF12",
"T  c #17FD17",
"R  c #17FF17",
"E  c #18F218",
"W  c #1DF61D",
"Q  c #1CFF1C",
"!  c #1DFF1D",
"~  c #28DE28",
"^  c #35C935",
"/  c #2FEE2F",
"(  c #22F722",
")  c #2DFF2D",
"_  c #2FFF2F",
"`  c #748F74",
"'  c #4DEE4D",
"]  c #43F243",
"[  c #40F740",
"{  c #47FC47",
"}  c #4CFF4C",
"|  c #4FFF4F",
" . c #56F456",
".. c #56FA56",
"X. c #55FF55",
"o. c #5AFD5A",
"O. c #64FF64",
"+. c #6CFD6C",
"@. c #71FF71",
"#. c #72FF72",
"$. c #928F92",
"%. c #97AD97",
"&. c #A3ABA3",
"*. c gray66",
"=. c #A8A9A8",
"-. c #A9A8A9",
";. c #AAA8AA",
":. c gray67",
">. c #81FD81",
",. c #8BFF8B",
"<. c #94FE94",
"1. c #AAFFAA",
"2. c #AEFFAE",
"3. c #CECBCE",
"4. c #D3DCD3",
"5. c #C5FFC5",
"6. c #DDFFDD",
"7. c #E1FFE1",
"8. c #E6FFE6",
"9. c #EDF5ED",
"0. c #E9FAE9",
"q. c #E8FFE8",
"w. c #E9FFE9",
"e. c #EEF9EE",
"r. c #EDFDED",
"t. c #F1F2F1",
"y. c #F1F3F1",
"u. c #F4F3F4",
"i. c #F5FDF5",
"p. c #F7FDF7",
"a. c #FAFFFA",
"s. c #FCFFFC",
"d. c #FEFDFE",
"f. c #FFFCFF",
"g. c #FFFDFF",
"h. c #FEFEFE",
"j. c #FFFEFF",
"k. c white",
/* pixels */
"            7 9 3 *             ",
"          8 3.y.] p ;           ",
"      5 $.t.f.j.| D E e #       ",
"    0 4.r.j.a.r.' C T n h <     ",
". =.u.<.,.i.2...4 y B q q M t . ",
". =.j.i.6.X.) D M i @ j M D y . ",
". =.j.j.w.D I T D p . v D D t . ",
". =.j.j.8.! Y J D p o z D D t . ",
". ;.j.j.w.D D L D f O z D D t . ",
". =.j.i.7.O.) D K p . v D D t . ",
". &.j.>.#.a.1.{ ( ^ 6 ~ V J y . ",
". u  .D ! o.5.0.2 %.9.` w W t . ",
"    , l L D | +.n [ #./ k 1     ",
"      + w U D D D D m r $       ",
"          = g U m f -           ",
"            % > : $             "
};
