/* XPM */
static char *_f225dff4c8c4c22b140804202f62e0cDxF5JmueT9ZWRVe9[] = {
/* columns rows colors chars-per-pixel */
"64 64 240 2 ",
"   c #361E22",
".  c #392729",
"X  c #382D33",
"o  c #302B2E",
"O  c #2B181A",
"+  c #421C1B",
"@  c #4A211E",
"#  c #472A2A",
"$  c #572C2A",
"%  c #5D312D",
"&  c #4D3C3D",
"*  c #493638",
"=  c #533433",
"-  c #5B3A35",
";  c #54363A",
":  c #543C3B",
">  c #5B3C3C",
",  c #5A3636",
"<  c #492E32",
"1  c #642C2A",
"2  c #66322D",
"3  c #633433",
"4  c #6B3633",
"5  c #643934",
"6  c #6A3B36",
"7  c #643C3C",
"8  c #6B3D3C",
"9  c #66373A",
"0  c #743A33",
"q  c #733E3C",
"w  c #7B3E3A",
"e  c #783A34",
"r  c #72332F",
"t  c #5C423E",
"y  c #56413E",
"u  c #4E413E",
"i  c #64423E",
"p  c #6C423D",
"a  c #65483D",
"s  c #73423D",
"d  c #7C433D",
"f  c #76463C",
"g  c #483E43",
"h  c #5C3E42",
"j  c #553D44",
"k  c #643D41",
"l  c #6A3E42",
"z  c #713E43",
"x  c #4B4346",
"c  c #544342",
"v  c #5D4343",
"b  c #5B4944",
"n  c #5C4C4B",
"m  c #574849",
"M  c #5D5051",
"N  c #634343",
"B  c #6C4343",
"V  c #634A45",
"C  c #6B4B45",
"Z  c #64464B",
"A  c #6C4649",
"S  c #644C4B",
"D  c #6C4B4C",
"F  c #744444",
"G  c #7C4543",
"H  c #744A45",
"J  c #7C4945",
"K  c #734549",
"L  c #794749",
"P  c #744B4B",
"I  c #7B4C4B",
"U  c #64524D",
"Y  c #6B524D",
"T  c #6E5145",
"R  c #74534D",
"E  c #7C524E",
"W  c #6B4D52",
"Q  c #644C53",
"!  c #734E52",
"~  c #7C4E51",
"^  c #645454",
"/  c #6C5353",
"(  c #6C5A54",
")  c #685859",
"_  c #745354",
"`  c #7C5354",
"'  c #725C54",
"]  c #7B5A54",
"[  c #73545A",
"{  c #7C555A",
"}  c #735B5B",
"|  c #7C5A5B",
" . c #6E615C",
".. c #74625B",
"X. c #7A635C",
"o. c #79665B",
"O. c #6D5D60",
"+. c #785D63",
"@. c #6C6265",
"#. c #756463",
"$. c #7C6463",
"%. c #7C6B64",
"&. c #7D6D69",
"*. c #776868",
"=. c #7D716A",
"-. c #7A7072",
";. c #843E37",
":. c #83443D",
">. c #8A453C",
",. c #874439",
"<. c #94483C",
"1. c #814643",
"2. c #834A45",
"3. c #8C4C45",
"4. c #834D4B",
"5. c #8B4E4A",
"6. c #874644",
"7. c #934D44",
"8. c #964E47",
"9. c #84514D",
"0. c #8C524C",
"q. c #8A5548",
"w. c #93534C",
"e. c #9A544C",
"r. c #975449",
"t. c #844D51",
"y. c #845453",
"u. c #8B5553",
"i. c #845A55",
"p. c #8C5A55",
"a. c #845659",
"s. c #8B5659",
"d. c #845B5C",
"f. c #8C5B5B",
"g. c #925552",
"h. c #945A55",
"j. c #9B5B53",
"k. c #945D5B",
"l. c #9B5E5A",
"z. c #985654",
"x. c #A3574D",
"c. c #A35C53",
"v. c #A85F55",
"b. c #B15F51",
"n. c #88635D",
"m. c #95625D",
"M. c #9B625C",
"N. c #996456",
"B. c #A2625B",
"V. c #A76459",
"C. c #B66456",
"Z. c #845D62",
"A. c #8B5E61",
"S. c #805760",
"D. c #836364",
"F. c #8B6363",
"G. c #836C64",
"H. c #836D6B",
"J. c #8C6C6B",
"K. c #896867",
"L. c #936362",
"P. c #9A6562",
"I. c #936A65",
"U. c #936C6B",
"Y. c #9A6D6B",
"T. c #9A6866",
"R. c #83736C",
"E. c #8B736C",
"W. c #8A756A",
"Q. c #96736C",
"!. c #896E71",
"~. c #847472",
"^. c #8B7573",
"/. c #867A73",
"(. c #8B7B74",
"). c #8C7C7A",
"_. c #897779",
"`. c #937373",
"'. c #9C7472",
"]. c #937B75",
"[. c #937C7B",
"{. c #9B7D7B",
"}. c #997975",
"|. c #A46965",
" X c #A57875",
".X c #B0776D",
"XX c #8D827C",
"oX c #8B8176",
"OX c #94847C",
"+X c #9A837D",
"@X c #98897E",
"#X c #A4857B",
"$X c #947E81",
"%X c #948483",
"&X c #9C8483",
"*X c #968A83",
"=X c #9C8B83",
"-X c #9C8D8A",
";X c #97878A",
":X c #9D928D",
">X c #9D9186",
",X c #968C8C",
"<X c #A48483",
"1X c #A38B84",
"2X c #AC8A83",
"3X c #A38D8A",
"4X c #AA8A87",
"5X c #B18C84",
"6X c #A3948C",
"7X c #AA938D",
"8X c #A7958A",
"9X c #B4958E",
"0X c #A49692",
"qX c #AB9592",
"wX c #A69A93",
"eX c #AB9B95",
"rX c #AC9D99",
"tX c #A69C9C",
"yX c #B39B93",
"uX c #B39E99",
"iX c #B99A93",
"pX c #A48E93",
"aX c #AEA29A",
"sX c #B3A39C",
"dX c #B9A59B",
"fX c #B3A5A1",
"gX c #B5A9A3",
"hX c #BBABA4",
"jX c #BAABA6",
"kX c #BEB0A7",
"lX c #ABA5A2",
"zX c #9B9CA2",
"xX c #C3B3AC",
"cX c #C4B3A8",
"vX c #CABAB4",
"bX c #C6BAB5",
"nX c #C6B0A9",
"mX c #C0A59E",
"MX c #D1C2BC",
"NX c #DDCDC6",
/* pixels */
"jXqX<X[.+.H.).H.%XpX4X$XpX;XuXqXOX+X7XqX3X$X<X=X$X~.^.3XeX{ F.].&X%X$XpX;X;X4X&X<X;XjXrXrX-XpX$X$X$X$X<XpX3XqX0XqX$X$X$X{.&XrXuX",
"a.K R.J.A.S.a.{ W { S.s.t.j ;XU.L P a._ D ! _ | W D D K.1X8 L I I K P P ` ~ a.a.n X pXa.~ z z z 5.t.S.t.s.~ [./ A F K K ~ ~ K ! ",
"F.{ ^.D.L.T.P.P.s.k.P.k.k.S.$X`.A.Z._ ` P ` a.{ | { _ D.3XG y.` s.y.y.a.f.a.~ ` { +.uXu.S.t.z z s.s.l.k.|.4.$X} ! a.s.a.L.k.A.a.",
"k.i.^.| s.f.` a.s.Z.L.k.k.! ).K.Z.I.F.f.Y.L.I.f.y.d.{ K.+X5.5.s.y.y.a.i.a.t.y.a.t.! wXs.6.z L 6.6.s.z.s.z.9 ).D t.t.a.A.S.Z.A.A.",
"p < ..' N y * b S M ^ W Z ; R.W N D P ` R ] K B 7 B A C %.5 p C N S v > > ; t b t b 6XU S ) Y T K K R E H Y &Xv - i i N z h B F ",
"6XhXvXvXdXfXfXsXsXbXkXkXxXjXvXwX(.>X@X(.%.%.@X=X@XOXW.=XxXeX@X*X@X>XwXaXsXfXgXgXhXbXvXbXbXvXvXMXhXrXsXsXdXbXNXbXfXeXwX0X0XrXrXwX",
"'.Y.'.'.Q.L.I.'.[ ;X`.~ / F.K.d.m.n.i.i.E i.Q.}.'.P.i.} d.m.y.Y P P ~ !.%X[ &.O.d.K.I.F.L.L.L.K.uX&.| d.s.m.J.I.F.L.I.m.p.p.Y.'.",
"w.w.0.w.w.7.7.>.z <X} 8 G L P J >.,.1.3.8.w.0.2.7.5.G 2.0.w.2.G d G e m H.> ~ K G 6.7.3.r.x.r.d ^.[ L u.g.g.u.K 4.w.9.2.e.w.2.r.",
"V.B.B.B.V.C.C.j.4.!.x 7 P I I p.l.k.l.e.q.z.z.w.4.2.w.r.0.0.4.P 5.I 8 n ~.B d.{ P 2.3.q.w.w.r.7.].W k.h.s.f.f.` z.p.P p.m.k.M.M.",
"F 2.3.7.0.g.j.w.:.D x k B F 2.P L H J 0.7.3.G 2.2.F J 2.d F N > > , $ ; (.* k B s e ,.:.e d <.2 ..W % F l k > l 3.p L 9.B B 3.2.",
"W.U V R a t U ^ ( R.=X/ b T R V ' %.G.R.R.G.R.H.#.o...} X.G.R.oX=...( _.fXOXOXOXoX+XW.W.].@X1X(.aXsX$.=.%.W.$.%.%.%.%.G.R.G.%...",
"&X/.0XwXG.] ] Z.F.U.'.K.X.I.G.eX1XI.Q.I.'.J.D.I.F.d.n.| 8XY.k. X'.K.D.}.9X9X9X9X4X+XtXxX<X<X$X`.`.<X^.).3X=XvXrX~.!.$.H.`.H.[.&X",
"/ W !.%.L w.3.0.0.9.4.g.g.g.` 8XE.F 0.w.j.j.V.N.j.p.m.s.[.J e.z.:.f f 6.7.>.3.2.d 7 _.8Xq 1.G 4.4.8 q z 7 9 $.%.Z ! _ P I 5.~ t.",
"A.Z.D.J.0.u.u.g.u.g.g.h.B.c.F.eX}.i H e.V.j.V.j.p.p.P.9.{.g.x.M.p.0.l.M.M.M.g.p.p.I rXXXk u.0.I 4.g.u.J J 1.| (.{ A.i.Z.f.A.d.a.",
"[ [ ~.H.w 4.5 $ q 2.P 0.w.q.H 8XR.3 i B J 9.3.3.9.K V ; ^.T % I 4.4.4.g.5.2.0.0.p.B :X-.$ G 6.d 9 s 8 8 J q } *.! { ! D ~ d.{ | ",
"& & ).0XU } &.OXG.( t t V T ..eX0X)  . ...o.....G.%. .^ aXeXR./.o.&.%.%.G.n.o...' ' aX*Xv C v y y v c c v * m m & b & v : c c b ",
"8XeX8XrXdXxXxXxXfXxXsX$.O.H. X2X$XY.J.'.'.D.Y.Q.Y.'.| F.D.U.`. X'.+X`.&XfXrX&X^.^.{.$X2X1X{.~./.XXsXvXkXgXhXxXkXfXeXeXhXhXrXaXXX",
"9.G s J E P F t.l 3X_.A { ~ s.6.z 6.w.e.8.8.r.8.c.x.$ q u.p.w.e.z.e.z.3 @.I q f s B q G L B P P `.wXx _ _ ` R 9.E { E p.m.C S 9.",
"J H P E P E 9.i.L 1X} { A.T.|.s.z.z.c.v.V.v.b.b.C.C.f q.h.z.g.j.w.B.|.J ).9.2.J 4.9.u.` I p.j.3.{ =Xt 3.5.q.7.2.3.J r.q.3.p d r.",
"q.j.g.H E y.` H z `.O.Z.A.P.B.l.j.w.0.5.3.3.3.e.x.x.7 1.j.c.s.y.G J u.l #.9.:.0.5.8.2.4.8.w.w.w.G ).5.e.p.0.0.u.w.j.3.3.r.f J 9.",
",.2.:.d d f f 0 # 6X!.Q S S a i t > > i p t i p H p t a H R ] X.U i v = U N - p F f p 5 i H V T C oXC B p t i p p p p p f p d ,.",
"(.(.&.H.X.X.( ( ^.bXuX3X<XOX6X8X1X,XsXaXrXaX6X:X:X6XsX:XOX8X=X$.(.*X%X>XfXeX6X*X%X(.:XaX0X,X:X-._.sX)./.).).*X=X>X@XaXfXfX>XW.W.",
" X'.qX`.z 4.1.3.g.1.e.6.w F *.iX' Q +.+.+.Z.} +.| P [ ~ +XH.F 1.G J F K 4.3.6.>.z q 6X_.i.I 0.I 4.q.5.0.0.F ;X&X].`.U.'.K.G.U.Q.",
"w.3.Q.U.;.e.w.8.x.8.x.c.v.z K fXS D P I ` ! D ` y.y.y.9.^.4.7.x.e.c.x.G d 1.<.<.;.r (.J r.w.x.e.l.z.w.w.N.2.`.` a.0.I 9.w.g.q.g.",
"h.w.n.I.;.e.x.x.e.8.x.e.x.8.l.nXH P i.m.k.9.y.f.p.j.m.4.R.u.;.8.x.8.8.0.0.5.:.,.,.r J.V 7.z.l.z.g.w.z.h.V.5.&.n.k.f.y.9.q.p.p.0.",
"w.9.` G.r r ;.w 4 r ;.6.3.e p.jXi B F 2.] N.q.T E I P - (.i.3 q 4 5 8 5 4 5 5 3 4 1 Y m $ q i 7 i i 7 7 8 > ) v K 6 d >.w.0.w.5.",
"( ( G.=XK.G.( E.W.R.O.(.[.^.qXkX/.%.R.(.W.%.W.(.(.=.R.@XvXvXgX0X/./.~.&.oX*XOXoX-X>XaXaX(.:X%X:X0XW.=.OX@XOX=X#.( W.R.X.] ( ] X.",
"M ) eXeX-X].Z @.).pX[ Z.+.a.a.u.a.n.y.i.{ P P R ] _ a.K.K.E d.s.~ ~ A } bX0XM / Z.`.;XpX<X^.U.D.-.xX,X,X0X,X%X%X%X%XXX%X@.@.*.&.",
"Z ! Q v > j V v ^ ).k t.~ L 1.2.5.I ! I 4.5.3.3.J :.7.,.:.2.G 3.0.r.7.> tX .< 7 7 K B N > F F > O.).* g j > N Z N N i A V ; ; ; ",
"E E 2.9.w.j.j.9.Z ^.K A ~ 5.t.a.d.L.|.Y.L.f.g.e.c.V.B.V.j.j.c.V.|.B.M.* :X[ w F 3.J _ ! n A D v ) ^ s J B F I 9.q.4.0.0.I A P P ",
"8 ,.:.G 2.d f G j R.l k k 9 k h K F B 7 > 6 6 w q s 5 s J 3.e.2.N i X o 0XR 1 9 1.G B l l 7 7 # m U $ s p i i 8 G G p p 8 s >.d ",
"E.G.( ' U ( =.o./.hX8X(.^.G.} o...X.G.W.K.Q.}.W.Q.n.R T H H i.X./.XXoXwXxXoX( %.( / ( %.} (  .M *X0X%.&.oXR.R./.OX*X>X@X(././.W.",
"yXaXxX1XW.+X=X1X#X^.!._.).{.>X(.@X*XOXXX@X=X0X:X=X1X@XdXW.Q.#X5X5XiXiXiX5XiXyXyX1XdXfX=XeXhXcXhXiX1X&X8XyXcXcX1X#X9X2X1XiX#X#XiX",
"e e OXZ B K K K z L a.[ a.` oX= p B < - k # v C y R X.sXJ 0 e 5.k.y.u.g.g.2.4.y.K `.}.2 J I P I I ` ! _ A ].^.$ G :.d ,.,.,.,.0 ",
",.d {.h ` f.L.k.k.t.Z.A.+.+.aX} 1.9.L I I i - P R R _ eXp.m.k.M.p.i.i.|.m.u.k.L.u.Q.}.2.4.I F F F A A A ; } Q.F j.g.r.e.d ,.<.<.",
";.1 OX7 k F L I a.[ W W A j 1XJ.J G s H A K P i.s.i.Y 1Xq 2.G e.3.L q 2.6.w 2.9.J I.G.3 l F 8 7 l , = , = &.E.3 8 0 7.<.,.,.;.;.",
"= U eX%.m g < . . o   g c X *.U o u b c u m n U v & n hXJ.P _ _ } *.&.$...D.R Y B &.~.X & U } m c M ) ) x %X6Xn / Y V S V y v u ",
"hXMXNXMXxXdXhXxXsXE.E.].].OX3XG.G.}.2XyX1X8X@X#X6X(.9XaXsX0X*X&X1X2X].=XbX7X2X1X7X#X+X}.6X7XwXhXxXhXdXhXeXxXnX6X6XrXwXsXdXhXdXsX",
"J H f H 4.y.4.=XuXz :.>.1.0 s 2.w.3.,.d d 0 e 5 < # 0 >.J I S s :.0 % & (.5 w 1.4.z F s B 8 8 $.+.h Z K F P B = 5 N B J H D i.P ",
"3.1.l G F 4.G k {.L y.c.0.2.0.5.w.w.r.<.7.3.w.q.f - 3.V.z.h.u.0.a.5.d & %X9.G 0.0.g.0.L y.0.8 $.S Z D I I J 4.0.9.G E g.5.s G 9.",
"0.w.z.q.3.5.9.I %XK H 0.s.f.d.s.g.u.0.x.j.e.h.0.E y.p.j.l.m.L.s.W ! 4.j %X0.e.2.p 5 6 1.I 2.5 $.d.A d.k.p.h.z.w.4.3.4.j.r.1.3.9.",
"6 0 ,.0 w e s = ).Q v Z B A B 7 - 6 6 9 5 - d f % - 7 i B h > = . O   X R.# + + # # $ $ $ $ @ } / N N N 6 = # 9 3 5 % % $ % 2 % ",
"#.G.X.X... ...%.dXhXOX@XwX@X&X8X8X8X8X>X>X*X@X>X*X/.(.o.( o.=.R.oX/.*.XXkXoX/._.#.( b U U U ( 0X#.^ ( ) o...*.o.( / U ..#.%.R.R.",
"3X=XaX#X' _ ` i.i.k.s.m.L.n.cX*X{._.-.K.@.@.#.} $.K.%.dXI._ D.E.}.E.}.1X<X-X%X/.H.@XhXhXgXqXyXqXsXyXdXmXeXhXrX-.~.OX~.-.+X&X`.{.",
"~ F &X[ ; L P K 4.4.F 6.1.4 uXD.` d.d.{ / Z A P _ ` > W.O.! { A S N B K B v D _ c n 3X7 A 1.K F :.6.2.g.q `.$X* A I A ~ ~ t.s.u.",
"Y.F.%X!.I a.D A ` 4.5.2.2.5.1XF.p.F.F.n.i.L.f.k.k.n.{ J.#.d.F.` ~ ~ { D D ` | D n Q qX~ u.s.g.f.m.k.g.z.c.Y.).A { | A.U.Z.I.Y.T.",
"t.P G.c $ > ; ; Z y.5.1.1.4 ( F.5.` E p.{ P y.` 9.y.L OXH.9 l 7 B F A P _ y.4.A ; ^ rXz t.k.u.u.u.4.g.P.e.A.~.o A a.f.d.! A.f.i.",
"y * @.XX^ m n x j c v v c c (.G.V T T V b V n c c c & ^.6X~.*.o.U v } Y y S / ( ^ qXvX$.+.F.| ! P ` D ! ! H.lX-.H.*.) ^ S v V b ",
"OXXX4XuXuX7XqX3XrXeXwXfXxXaX:XeX8XuXuXrXyXiX3X+XE.#X^.&XfXzXzXdX&X-XwX0XdX3X-X7XyX9XnXmXmXdXnXvXjX:X-X1X1X1XsXyX8X7X3X=X&XOX)./.",
"# < C B L 4.y.K 3XI.q.F y.Y ^ L.M.j.g.f.k.j.j.l.z.w.1.2.F c > 8 q 4.L M `.l 7 q q 4 4 8 2 q 4 }.^.7 K P F A 7 > - B F B P P - ; ",
"N : v ! [ P ` A $XY.c.x.j.j.k.k.i.k.M.N.M.M.h.M.M.M.M.V.0.0.P 4.3.4.> g X.l 4.1.5.2.s p q 1.4 [.J.I _ S P C I y.q.H P K N F I J ",
"F K J F D / A.` _.D.e.M.l.k.k..Xf.m.P.T.M.j.p.p.u.i.9.w.g.9.H B L u.D X } 8 s 1.w.5.5.2.2.5.d $.J.F y.~ { | g.s.{ 9.L C C I i.y.",
"u c p C = = k = %.} > A - > y : t : y C H H ] R H Y R U Y R H S N D <  .=.t X.C 7 6 5 f 5 = 5 R ' , > t = * 7 7 > Z / S B v t i ",
"sXsXfXfXdXsX3X6XxXvXcXjXwXOX*XeXsXwX*X=X=X6XfXgXaXeXhXhXdXcXjXdXsXaXeXhXbXhXdX0X6X&X0X@XoX:XeXsXxX0X0XrXrX:XrXjXbXbXvXbXxXgXfXsX",
"D.D.uXjX X XL.A.P.D.U.U.'.}.+X+Xf.T.n.m.Y.n.] d.d.n.n.`.sX| d.P ` D.[ _ ] E H E I.d.jX~.Q W | | [ { | +.$.[ pX[.W ^ Q [ +.^ ` +.",
"I 4.a.3XQ y.s.z.v.u.L.T.t.G J.[.p 0.5.j.j.B.V.V.h.w.u.s.*XB 8 F s B p i G G 2.J 2.r %XD.9 p A K L u.I K [ W ~.&XK ! ! L l L 4.I ",
"s.A.Z.[.~ A.|.P.|.|.T.T.A.L 4X1X8 H 3.b.c.V.x.r.u.M.M.a.3XL J D ` R / C 9.q.9.9.0.,.+X*.B _ D f.|.{ ! { Z.h (.<X~ d.{ _ P _ a.a.",
"! K ! ].z 2.L 4.0.6.~ 0.g.w U.&X4 7 p 2.0.<.8.r.2.H B h H.9 q s $ % 5 8 e e 0 0 1 # $.^ < > ; H q.* < < =   ~.'.1 F A h k K W Z ",
") ( -.vXOX=X;X).~.$.^.G.X.} ;XfXU S U U R ] ] n.] ( ^ ..dXrX8X1X%X/..._ } ] ' R ' ' 3X=X) R.~.%.' %.&.&.[.=XMXsX=.*.*.*./.&.#...",
"7X&X<X`.$X`.!.).0XMXqX{.{.(.'.4X[.OX&X{.].&X#X#X2X2X#X.X.X<X#X}.3X4X~.fXrX=X+XE. X}.$X$X}. XI.| tX1XO.@.^.`.<X2X7X9XiXhXuX9X9X7X",
"L 5.t.w.w.g.y.4.! rX[ ` P s P ! d.{ P 9.E C H J 2.,.2.9.q.q.2.J f d z 1XY 9 G G 1.1.4.l z l K 9 %XS g m v 9.4.G L 0.w.4.L 3.g.e.",
"y.M.f.f.k.p.L.k.` rX) A.| | Z ! F.n.k.E R T R E R i.n.n.i.n.n.m.m.y.L [.| 7 4.5.y.u.t.~ ~ { ! h %X) [ f.k.s.a.{ E p.0.u.u.k.f.y.",
"B I J P y.f.a.~ D qX[ F.d.y.9.p.P 9.p.j.h.R ] n.m.m.N.N.3.h.V.P.M.B.F J.} ; F l 7 8 q l F l h . =.W y.A.F.| ` y.y.4.B D P 4.4.K ",
": v > S Y S S V G.hXC B E C J D 7 t t p p p a C T f H - $ 6 f - t N 7 %...< : v V S / S / D U *.eXb ; v u * ; t i p i ; i t B C "
};
