/* XPM */
static char *_52d42b008544788e752ea8bd0bb84140V3tBcXGqjsLAe6n[] = {
/* columns rows colors chars-per-pixel */
"64 64 233 2 ",
"   c #2B394C",
".  c #333D4C",
"X  c #393E4B",
"o  c #323E52",
"O  c #303F59",
"+  c #2E3E53",
"@  c #35404E",
"#  c #3C414C",
"$  c #354253",
"%  c #3A4453",
"&  c #3E4956",
"*  c #35445C",
"=  c #3D4A5B",
"-  c #39465A",
";  c #3C4C62",
":  c #394A65",
">  c #43464C",
",  c #4C4A4B",
"<  c #484749",
"1  c #554E4C",
"2  c #4F504F",
"3  c #59534C",
"4  c #404752",
"5  c #444A54",
"6  c #4B4E54",
"7  c #424D5C",
"8  c #494F5A",
"9  c #45515E",
"0  c #4B535C",
"q  c #4B5359",
"w  c #535354",
"e  c #5E5A55",
"r  c #52565B",
"t  c #54595D",
"y  c #5A5B5C",
"u  c #5A5652",
"i  c #675A4A",
"p  c #635D54",
"a  c #655E57",
"s  c #5D605D",
"d  c #656155",
"f  c #6C6354",
"g  c #63625D",
"h  c #6A655B",
"j  c #6D6A5B",
"k  c #756A56",
"l  c #736C5D",
"z  c #7B6D5A",
"x  c #746753",
"c  c #7B725C",
"v  c #72634C",
"b  c #424F61",
"n  c #465263",
"m  c #4A5563",
"M  c #4E5965",
"N  c #455469",
"B  c #495669",
"V  c #4D5A6A",
"C  c #535C64",
"Z  c #5A5E63",
"A  c #525E6B",
"S  c #585F6A",
"D  c #5C6265",
"F  c #56616C",
"G  c #5A646C",
"H  c #5D686E",
"J  c #546271",
"K  c #5A6571",
"L  c #5E6973",
"P  c #636564",
"I  c #656966",
"U  c #6C6B63",
"Y  c #626569",
"T  c #646A6C",
"R  c #6A6D6C",
"E  c #686662",
"W  c #736E63",
"Q  c #706F6A",
"!  c #6E716C",
"~  c #747265",
"^  c #7C7464",
"/  c #7E7966",
"(  c #74746B",
")  c #7A766B",
"_  c #7C7A6C",
"`  c #76796E",
"'  c #636C73",
"]  c #666E75",
"[  c #667075",
"{  c #6C7374",
"}  c #667179",
"|  c #6C757A",
" . c #6E797C",
".. c #737672",
"X. c #757A75",
"o. c #7B7C73",
"O. c #747C7C",
"+. c #7A7E7B",
"@. c #747774",
"#. c #8B7B5C",
"$. c #82765D",
"%. c #937B55",
"&. c #957045",
"*. c #847B65",
"=. c #8A7D64",
"-. c #837D6B",
";. c #847965",
":. c #817E71",
">. c #817F78",
",. c #917F65",
"<. c #7C817D",
"1. c #7D8175",
"2. c #9A855C",
"3. c #A68B5B",
"4. c #86816D",
"5. c #8B836D",
"6. c #8B8164",
"7. c #958664",
"8. c #92856B",
"9. c #958A6D",
"0. c #9B8D6C",
"q. c #998965",
"w. c #9D916C",
"e. c #848374",
"r. c #8A8573",
"t. c #8D8975",
"y. c #83857B",
"u. c #86897C",
"i. c #8B8B7C",
"p. c #89877B",
"a. c #918772",
"s. c #938C74",
"d. c #998E74",
"f. c #938E7A",
"g. c #998F7A",
"h. c #9B9274",
"j. c #95917B",
"k. c #9B947B",
"l. c #9E997C",
"z. c #969077",
"x. c #A18D67",
"c. c #A69469",
"v. c #A39674",
"b. c #AC9D76",
"n. c #A39B7D",
"m. c #A79A78",
"M. c #B6A26D",
"N. c #ACA47C",
"B. c #A6A07D",
"V. c #B7A978",
"C. c #C2AD74",
"Z. c #C1B37D",
"A. c #C8B579",
"S. c #D5BC76",
"D. c #C8A865",
"F. c #DDC57B",
"G. c #E6CB7F",
"H. c #757E81",
"J. c #787E82",
"K. c #7C8382",
"L. c #778180",
"P. c #828683",
"I. c #858985",
"U. c #8B8D83",
"Y. c #868B89",
"T. c #898E8A",
"R. c #818789",
"E. c #908F82",
"W. c #8E9185",
"Q. c #8D928B",
"!. c #939384",
"~. c #999683",
"^. c #9C9984",
"/. c #93958C",
"(. c #96998D",
"). c #9B9C8C",
"_. c #98978A",
"`. c #939691",
"'. c #959991",
"]. c #9A9D92",
"[. c #8F9391",
"{. c #A29D83",
"}. c #A19E8B",
"|. c #A99F82",
" X c #9FA18F",
".X c #9EA194",
"XX c #A4A185",
"oX c #ABA383",
"OX c #A4A28C",
"+X c #AAA58B",
"@X c #ACA98C",
"#X c #ADA884",
"$X c #B3AB85",
"%X c #B2AD8B",
"&X c #B8AE83",
"*X c #BBB58C",
"=X c #BFB98D",
"-X c #B9B289",
";X c #A3A494",
":X c #ABAA94",
">X c #A3A699",
",X c #A7A99B",
"<X c #A9A997",
"1X c #B6B393",
"2X c #B9B898",
"3X c #B0AE91",
"4X c #C7BB87",
"5X c #C3BD94",
"6X c #D2BF82",
"7X c #D7C787",
"8X c #C5C194",
"9X c #CBC594",
"0X c #CCC79B",
"qX c #D2CC97",
"wX c #D5D19D",
"eX c #DBD59C",
"rX c #DCD195",
"tX c #CDC38D",
"yX c #EAD183",
"uX c #F4DA88",
"iX c #E7D896",
"pX c #E5CC81",
"aX c #F8E99C",
"sX c #D9D6A4",
"dX c #CAC9A3",
"fX c #E1DDA7",
"gX c #EBE6AA",
"hX c #F7EDA7",
"jX c #FCF4AA",
"kX c #EAE9B1",
"lX c #FEFDBC",
"zX c #F9F7B7",
"xX c #F1EEB3",
/* pixels */
"y.p.o.#XV.I B.6.1.1.<.u.<.u.<.9XiX4.{ <.+.X.X.+.O.| X.~ ! t.~ D D 4.j A T H H m N.%.@ 9.2 n M 0 m 0 9 0 c.&., $ & # # @ @ @ @ . ",
"y.i.8.h.7X^ u.B.` I.u.u.u.u.1.eXN.R u.<.<.<.<.+.+.X.+.-.I  .1.g T ( ~ D ' H T ^ 4.D., H 7.& C m m m 9 0 3.v @ > & & % $ @ @ . . ",
"u.t.c #.qXs.O.#X5.<.i.I.U.K._.tX! K.P.p.<.O.+.<.J.+.O.i._ 1.t.~ ] R o.s ' L ) c 4.F.x ; h.f n M m m 7 I 2.# = 5 # # @ @ # @ @ . ",
"i.5.4.^ 4.w.X.!.V.! I.W.W.1.=Xs.+.P.i.0.5.z.e.O.O.+.O.y._ [ <.y.P T t.P L ] / U U ` 8.= ` q.$ m C C 7 #.3 = & s k , 2 , @   @ . ",
"j.*.e.z.l i.9.X.@XV.s.y.<.W.&X..Y.I.i.=.8.o.t.k.o. .<.O.l._ X.t.W ] 5.D ' ..^ G i.y R 4.= j.q.w 7 ; y %.% 9 = g e d 6 w d <   @ ",
"i./ t.j.=._ t.9.<.OXtXZ.$XrXz.<.E.Y.f._ !.a.Q +.j.5.| L.L.j.T +.e.U / D ' X.~ ! ` ^ q ( / = :.x.2.k 2.i - 0 = I # 2 j # 5 d 3   ",
"z./ W.!.f.) U.s.e.I.U. XeXgX1.T.T.Y.!.r.y.j.k.) +.k.o. .L.L.l._ e.) ` T } 1.P L ] r.y A -.P n V R C.D.5 m n = I 3 @ 2 d 2 @ d 2 ",
"s.4.j.j.k.*.-.W.d.u./.U.!.qXo.Q.T.T./.a.X.Y.U.v.-.| {...L.<.L.k.4.:.U T [ u.~ ( T ( ~ t G -.m G m ' C.4 m n 9 0 j @ & # v 3 @ 1.",
"j.-.!.!._.=.>.E.9.1././.Q.9Xy.T./.T.Y.5XN.:.P.U.l...f._ O.<.H.O.u.k.9.G } y.I ' ' ] -.M D -.C A F A V.6 n m 9 & c v @ @ @ j < w ",
"!.8.f.~.~.g.-.i.^.e.Q.(.Q.qXf.T.Q./.qX$X).{.f.e.U.k.) y.| J.H.H. .J.$XT ' +.;.T Q Y :.E C O.P V F B V.d ; 0 9 6.v t j , # @ c # ",
"v.7.t.~.~.^.:.Q.n.e.(.(.T.8XN.P.).wX^.L.Y./.{.^.s.r.-.6.| L.y.:.-.-.s.-.W ;.5.Z ] Y X.U V r.D F F B N.6.- m 2.d * = q d 3 < < u ",
"8.r.v.f.^.{.=.i.f.y.(.).`.2XqX+.sX^.K.(.Q.U.Y.Q.^.k.9.W | f.5.( @...{ @.k ;./ r.Z ] :.Q t _ C J H M i.M.@ c.j - 0 = ; = 5 2 2 c ",
"h.y.}.k.f.).r.E.k.U.].).].).kXxXXXK.'.Q.Q.Q.Q.Y.P.R.@Xr.t.-.{ +.` o.W W Q ,.S +.e.Z { ! D 4.B K H F ' 7XM.c & M M = 9 = & & & j ",
"4._.).OXb.k.-.g.t.(..X'.Q.;XzX%XK.'.[.Q.Q.Q.I.T.Y.P.Q.N.;.@.+._ ^ $.~ | r.Q ' ' +.9.U j l E F L J N T pX6.; M 9 m m 9 = & & & $ ",
"!.).).'.;Xh.*.j.Q.(.W.OXdXhX$XK.`.[.Q.Q.Q.T.Q.I.U.K.I.9.) ;.^ ;.) @.O.,.;.L | | ' O.r.h ~ A J A P 0.F.*.; m m M m ; = 0 & & $ & ",
").).].].'.@Xw.U.'.1XgXlXxXe.Y.].@XW.Q.Q.Q.Q.I.Q.R./.&Xc =._ >.+.+.>.:.;.] | } } ' J i.6.M A _ V.yXF.q : C I C m M q 0 9 9 & & k ",
"].). XoX!.1X!.'.sXxXgXlXxX1X3Xn.8.,.J.[.Y.T.T.R./.5Xi.i.{.4X^ a.k.z.! } | | } X.9.T n.Y K V.pXA.yXF.4.W h #.W * n n n 9 - 0 %., ",
").;Xn.$.|.m.P.gXfX!._.OX2XgX&Xi.;.{.+X}./.U.U.).8Xy.O.K.H.2X#XV =X..} O.| | | h.c z.5.N 7XA.Z V T _ C.x.I ~ / ~ s r 0 0 q #.2 + ",
"].OXd.=.T.v.5XgXy..X>X].].g.y.!.y.}.*X5X5X5X*X%Xu.K.Y.I.K. .2XiXtXG  . . .} 1.-.~ A -.N.7Xn J L J T j B ` t 1.7.*.#.c k k 6 $ = ",
";X{.f.r.g.Q.sX{.'.>X.X.X+X>.].9.>.v.@.Y.I.Y.Y.K.I.Y.P.P.P.K.O.gX4XF <. .| | t.T ( E K tX^ V L K F r.I J *.& _ 9 ; n n 7 - = = = ",
";Xg.~.9./.OX{.f.].>X.X<Xg.U.^.g.U.^.u.Q./.Q.T.T.Y.Y.R.P.K.K.<.Y.eXT  .O.| <.o.! / F T _ T J K J X.) D ! ~ = o.t n M m m 9 7 = = ",
";Xg.}.f.g._.>Xk.].>X>X+Xa.'.d.>._.k.y.[.T.Q.T.U.Y.U.I.P.K.K.L.| 2Xl.K <.| <./ L ) P Y O._ A L J y.! G 1.q 0 / C m m n 9 n 9 = & ",
"+Xf.}.9.E.+X|.~.'.>X>X|.i._.g.i.'.^.y.[.Q.Q.Q.T.Y.I.I.R.R.K.K.<.<.wXD } ' u.~ { -.Z R ) ` V L K 1.D T ) 9 V 1.9 V m m n 9 n = = ",
"qXd.+Xg.i.}.<X{.;X+X;XoXE.f.>._.XXz.R.`.Q.Q.T.T.T.I.I.I.R.K.L.L.| 2X8Xe.-X6XW T e.E G O.o.D P H s.t _ y 0 E ~ = F M m n 9 9 = 7 ",
"{.t.;Xn.E.>XoX|.m.}.1Xb.p.{.:._.+XB.U.R.Y.T.T.T.Y.Y.K.R.K.K.<.L. .W.zX7Xr.1.! H t.D [ r.4.*.P ^ 9.C :.r 0 e.*.0 n ; m n m n = = ",
":Xv._.}.a.OX|._.m.,.'.|.p.f.~.|.{./.1X%X|./.Y.P.Y.U.!.f.h.d.{ L. .Y.eXZ L <.e.F +.W T e.T 5.U ' r.T ) 8 I *.C / / U y 0 - = 7 w ",
";X|.~.|.p.:X|.].|.|.g.|.g.r.T.|.y.[.Q.OX1X5X5X9Xn.s.r.y.=.-.{ L. ./.8XG  . .t.P r.P +.4.F e.~ ) 1.~ ~ b -.0 B m D / *.=.w.k u s ",
";X+X~.OX,.|.E.,X+X{.+Xg.x.r.|.d.P.'.`.[.I.Y.{.t.y.+.o.-.( k.] H. . X=XF  .[ u.! { ~ -.Y J u.y ~ *.7.g ;.$.; F M M ; n z x r m D ",
";X<Xb.g.g.{.].>X<Xn.}.3Xb.,.g.{.i.[.`./.Q.oXr.+.I.p.a.~ ) $X=XT } 8XB.K <.[ <.4.U / ( F L @.-.b _ w.W ~ ` P m V V V 8.y m m D h ",
";X;X:Xn.d.g.,X>X>X:Xg./.1Xn.>..Xl.R.'.[.).r.P.P.U.8.o.y.p.o.+X8X' eX4.}  .| } u.~ -.I J ' K :.U 7 j.q.t { 5.; F m ` ~ m D C d X ",
";X:X<X+Xv./.,X,X>X>X%X{.1X|.~.g.k.y.`.'.n.y.P.t.a.-.p.>.n.X.| 1XjXiXH  ... .} } r.8.F L ' L G -.a e.6.g U o.n B F t.m D I 3 # > ",
":X;X>X,X4XQ.,X,X>X>X;X+X*X%Xm.m.v.i.P./.a.y.k.5.:.P.P.k.:.| K.| 8XlX( F  . . .} { N.A ] ' L L K R 5.9.u z #.j = ' 4.C ~ e $ & 5 ",
"_.;X>X,X5X~.,X>X>X>X>X].>X*Xi._.^.+X{.XXe.k.9.y.!.d.v.u.i.e.| H. .2XgXB.! H [  .' XXH L ' L H L A ' n.w Z P U h / T _ e # w 1 i ",
"5X+X_.>X2X{..X,X>X>X;X>X].1XE.`.'./.'.XXs.h.g.B.^.u.+.P.w.^ s... .| U.9XiX-X_ G K l.1.F [ L L L K V z.I N V B C _ ^ h , a p 6 5 ",
"xXzX0XQ.,X2X_.,X>X;X;X].].>X%XI.'./.[.1Xh.~.8X! L.R.P.~._ e.X.s.! <.<.XXaXaXjXV.C <.l.B [ L H K K F { h.n F V n  Xd w c.X : b - ",
"}.3XzXqX[.5X/.,X>X>X>X;X;X'.2X!.T.'.1X^.I.R.;X=Xy.P.R.j.` a...O.k.&X-XXX+.[ e.jX4XB N.D K L H K F K V l.I ; B 9.l 9 ; ` q.5 7 4 ",
";X}.:XlX|.:X$X`.>X>X;X.X.X].,X8XP.0X^.K.Q.Q.Y. X*X$X*Xn.] p.^ O.<.t.H L [ | L u.jX1.1.9.B ' K K K K V <.V.7 N.~ ; V M = s $.z k ",
";X;X'.sXfXP.0X^.].>X>X;X.X].'.kXlXXXK.'.Q.T.Q.R.P.I.I.e.( p.5.@.{ U./ } X.| | J 9XpX9 B.! J L K J H F F rXuX/ = A B m m b - 7 7 ",
"OX:XoX%XzXE.>XqX!.>X.X.X].;X`.zX0X+.'.[.Q.Q.Q.Q.Y.Y.Y.f...K.y.~  .1._ ' | | L.t.t.aXP L V.D K K K K F K iXM.* F M M m m m b = = ",
">X+Xd.g.zX%XT.dX+X'.>X.X].].,XgX<.`.`./.Q.Y.Y.T.I.Y.K.j.) o.r.-.O.+.u.R | | u./ *.aXs.N @X4.N L J K V <.7X8 V V C m n n b 7 7 = ",
">X|.~.a.}.oXE.2X0XP.]..X>X`.sX).Y.`.OXv.r.k.p.K.P.Y.P.T.e.| P.e.` { ~.R }  .t.I W o.9.m <.V.n J K L M 8X^ ; B O.c u p w 4 7 7 - ",
";Xd._.|.-.;X|.T.dXdX|./.Q.>X9XP.'.`.).-.8.<.i.d.e.J.I.K.k.^ ..-./ O.s.T } <._ G r.E ] 5.m j.V.W M : 1.V.= F m X.a f m y p 5 O 7 ",
"}.d.}.|.8.~.}.|.Q.2XsXqX0XxXOXY.'.`.~.e._.8.o.P.f.r.O.P.K.f.{ J.4.! y.R } y.Q Y Q ~ ! ../ m X.V.V.w.7X6.; F B X.r m p 8 C e 3 o ",
"|.p.}..X|.p.;X|.f.].'.<XkXlXy./.(./.).r.E.~.s._ +.f.o.+.K.K.d.~ _ *.o.T } p.I ' T e.P ] e.P V A [ A.uXt B F m ..a & p p r m a , ",
"{.a.+X}.|.5.~.;Xm.Q.>X]..XsXy.'./.`.'.r.+./.E.d.-.H.^.{ K.L.L.r.-.-.~ ' | p.g I I R W R K r.B K V K F.0 V V V A a o b 8 i p O ;.",
"{.i. X.X;Xg.U.+X{.E..X.X].sXu./.'.`./.9XN.>.U.U.d.) i._ H.K.L.O.y.8.0.G } u.R ' ] ] ;.A O.4.D J K J tXt B A M m 0.$.X 5 8 p 4 Y ",
"}.8.~.|.|.{.a._.;Xf.]..X'.sX~.Q././.eX1X!.k.g.t.I.d.o.e. .L.+.H.H.+.$XR ' +.l D R Y Q ) G +.T A L V 4Xj n B S Z.=.y u < 4 X f > ",
"m.8.f. X}.}.r.'.#Xu..X.X(.dX%XP.].sX^.H.Y./.E.f.f.f.=.*. .L.U.f.s.r.g._ _ ;.*.Z R Y @.U A j.D A K m #X0.: G 6XW O b m 6 1 < > i ",
"h.s.d.f.OX{.a.^.^.i..X X'.2XwX+.gX).L./.Q.Q.Y.T.j.s.9.^  .{.s.X.X.@.@.y.8.4.) ~ y Y W ^ ! 1.D J H V i.C.= 7Xc * M 9 = = 9 2 < i ",
"v.U.OXd.E.}.a.~.|.T..X.X.X(.kXxX@XK./.Q.Q.T.Q.Y.K.K.|.s.f.r.{ X.X.i.5._ U f.F X.~ F [ ` H t.N K F J H 7XF./ * M n n 9 9 = & % 3 ",
"r./.).}.v.d.8.k.s.'.].'.Q.:XzX*XL.'.[.Q.Q.Q.Y.Y.Y.P.T.N._ @.y.t.a.;.W Z s.` K [  .c s ~ t.! A K A B 1.uX6.- M n 9 9 = 9 = & & $ ",
"U.(.).(.).d.8.j.U./._.OXwXjX@XL.`.[.Q.Q.T.T.I.Y.Y.K.U.j.e.h.4.;.R ] { t.4.K } [ ' { c ^ 1.M V V ! N.yX6.- N m m 9 9 9 = & & @ = ",
"~._._._./.+Xc.U.W.3XgXzXgX1.K.'.3X!.T.Q.Q.Q.Y.T.P._.4X=.,.W R { ..-.s.e.L | [ [ ] J t.0.m A f.F.uXF.8 * F ~ q n 0 0 9 & = $ q 7.",
"!./._.v.r.%Xu.W.wXgXeXxXgX@X+XoX0.-.J.T.Y.Y.Y.L.Q.9Xu.1.a.4X;.a.m.n.] ' | { ' <.a.D @XZ K tXG.V.S.A./ U 1.7.d $ ; = & & $ 0 w.< ",
"!.(.h.$.k.z.<.sXqXy.I.!.+XeXV.1.x.k.oX}.!.!.W.OX9X1.} K.O.+Xm.C =XR ] | { } } k.~ 6.*.m qXC.0 n y U M.2.e 4.c f t q & & w w.<   ",
"W.~.8.=.I.9.N.rXo.W./.Q./.s.+.s.y.{.$X*X=X=X*X*Xp.H.K.K.L. .$XrX4XF  .| | ' y./ ^ F ~ N.F.= A F V H W = ~ q ~ c k v v d x # @ @ ",
"!.a._ -.t.u.5Xt.P.!.Q.Q.n._ Q.x.t.z.! K.K.K.L.L.K.P.K.L.L.O.} iXZ.Z  .| { } t.Z ( ! A V.j m G D A t.2 t 6.q 1.@ $ & & $ @ $ $ @ ",
"~.4.e.=.y.j.z._ W.W.W.^.4.o.i.j.K.k.o.R.I.Y.P.U.I.P.K.L.L.H.H.<.6XH | | [ O._ Z 6.V { 1.e V F M 1.j & s 1.@ j 2 & & & % $ $ @ @ ",
"!.*.u.-.5.i.!.4.u.W.I.j.W P.9.:.!.z.` P.I.P.P.P.K.P.L.L.O.H.O.[ N.0.K | ' +.~ A U W D T U m G m 1.2 q 1.2 q k # & & * % $ @ @ @ ",
"j.^ e.#.o.j.j.*.<.U.W.t.) e.d.1.P.s...P.P.P.<.P.J.J.L.O.O.O.O. .O.V.Z L K i.E Z / D T 1.I n A A ! 2 2 1.q & 1.@ & & $ $ $ @ @ @ ",
"V.*.i.4.*.u.i.4.j.k.U.6.` 8.^ p.~.4.X.I.P.K.<.<.>.+.+.+. . . . .L oXV.r.Z.C.p Z W U D [ ! t t t ~ & j e > j j   & % # X @ @ @ @ ",
"e.l i.6._ i.s.4.#.-.l.=.Q d.-.y.l.5...O.+.+.L.<.J.O. . .1.O.{ { ' 1.uXM.U I g C c t H t.c i 2 e v # 1.w > j d @ @ @ @ . @ @ @ @ ",
"u./ 1.4.^ t.4._ l c o.*.~ ;.e.j.9.1.h.h.s.y.<.X.O.u.j.s.h.8.H { ' 1.C.9 A ] l m I ~ H ! t d 2 C j , j , e 1.@ 3 3 2 < . . . . < ",
"u.*.^ 6.~ i.*.<.6.4.^ -.;.*.O.s.R O.+.y.n.N.V.V.v.4.) o.9.$.D [ H <.c.m T G l 6 j s ! c 9 d i 3 e e d @ 1.& @ @ < 3 i i i 3 < < "
};
