/* XPM */
static char *fd5b359f8eb1439a91b7a4114c9287b9V1J4hQHt3UL9oqD2[] = {
/* columns rows colors chars-per-pixel */
"64 64 210 2 ",
"   c #544735",
".  c #594C37",
"X  c #695639",
"o  c #725838",
"O  c #78623F",
"+  c #5D5240",
"@  c #715F42",
"#  c #6B614E",
"$  c #746244",
"%  c #73634A",
"&  c #7C6A4C",
"*  c #7D6643",
"=  c #766A53",
"-  c #7C6E53",
";  c #716651",
":  c #7D725D",
">  c #7E7356",
",  c #7E7260",
"<  c #876A3F",
"1  c #836B46",
"2  c #8A6F44",
"3  c #856F4E",
"4  c #816742",
"5  c #85714F",
"6  c #8B734F",
"7  c #887146",
"8  c #95794E",
"9  c #9B7C4D",
"0  c #977848",
"q  c #847255",
"w  c #8A7554",
"e  c #8F7B57",
"r  c #83745A",
"t  c #8C7A5B",
"y  c #86795D",
"u  c #947C55",
"i  c #987D53",
"p  c #937E5B",
"a  c #A37F46",
"s  c #A57F48",
"d  c #847963",
"f  c #8B7D63",
"g  c #9E8155",
"h  c #96815C",
"j  c #9C855D",
"k  c #A48555",
"l  c #AA8A56",
"z  c #A2865A",
"x  c #A4895C",
"c  c #AC8D5C",
"v  c #B48F56",
"b  c #BC9B5F",
"n  c #B5935B",
"m  c #8D816B",
"M  c #8F8066",
"N  c #948363",
"B  c #9B8663",
"V  c #9D8965",
"C  c #93866B",
"Z  c #998769",
"A  c #97896C",
"S  c #9B8B6C",
"D  c #948A74",
"F  c #9A8C72",
"G  c #978E78",
"H  c #9E9174",
"J  c #9D927A",
"K  c #A38C65",
"L  c #AA8E62",
"P  c #A28E6B",
"I  c #AC9265",
"U  c #A5926D",
"Y  c #AB946C",
"T  c #AE986E",
"R  c #A79065",
"E  c #B29564",
"W  c #B69967",
"Q  c #BB9B65",
"!  c #B29669",
"~  c #B49A6C",
"^  c #BA9D6B",
"/  c #A18F70",
"(  c #A59473",
")  c #AA9673",
"_  c #AD9A74",
"`  c #A4957A",
"'  c #A6997C",
"]  c #AB9B7B",
"[  c #AA9778",
"{  c #B39D73",
"}  c #BA9E72",
"|  c #B19E7A",
" . c #BDA16D",
".. c #AFA07E",
"X. c #B6A075",
"o. c #BCA374",
"O. c #B5A27C",
"+. c #BBA57B",
"@. c #BEA97D",
"#. c #CAA75F",
"$. c #C3A265",
"%. c #C3A56D",
"&. c #CAA96B",
"*. c #C8A565",
"=. c #D3B16E",
"-. c #C2A573",
";. c #C4A975",
":. c #CBAD73",
">. c #C2A779",
",. c #C4AB7C",
"<. c #C9AE7A",
"1. c #CCB27D",
"2. c #CAB07B",
"3. c #D2B475",
"4. c #D1B57B",
"5. c #D5B97E",
"6. c #DABC7F",
"7. c #AC9E82",
"8. c #A59D83",
"9. c #B39F80",
"0. c #AEA183",
"q. c #ACA38C",
"w. c #B3A483",
"e. c #BAA682",
"r. c #B7A885",
"t. c #BCAA84",
"y. c #B3A68A",
"u. c #B6A98B",
"i. c #BCAD8B",
"p. c #B8A788",
"a. c #BFB08D",
"s. c #AFA997",
"d. c #B7AD95",
"f. c #BBAE92",
"g. c #B4AD98",
"h. c #BEB193",
"j. c #BEB59A",
"k. c #C2AD83",
"l. c #C1AF8A",
"z. c #C8AF80",
"x. c #C5B185",
"c. c #CBB483",
"v. c #CEB885",
"b. c #C4B38C",
"n. c #CAB68B",
"m. c #CDB98D",
"M. c #C6B88E",
"N. c #D1B782",
"B. c #D3BB85",
"V. c #D9BF86",
"C. c #D2BD8B",
"Z. c #C3B593",
"A. c #C9B792",
"S. c #C6B895",
"D. c #CBBB94",
"F. c #C2B699",
"G. c #C6B99B",
"H. c #CABD9B",
"J. c #D1BE92",
"K. c #D1BF98",
"L. c #C5BCA2",
"P. c #CABEA1",
"I. c #C2BDAA",
"U. c #DBC185",
"Y. c #D6C18E",
"T. c #DAC28D",
"R. c #CFC096",
"E. c #CDC19D",
"W. c #D4C295",
"Q. c #D9C594",
"!. c #DDC996",
"~. c #D3C49C",
"^. c #D9C79C",
"/. c #D7C89E",
"(. c #DBCA9C",
"). c #E2CE9A",
"_. c #E5CE91",
"`. c #E4D29C",
"'. c #CDC2A3",
"]. c #CDC5AB",
"[. c #CFC8AF",
"{. c #D2C5A3",
"}. c #D5C9A4",
"|. c #DACCA3",
" X c #D2C7A9",
".X c #D4CBAB",
"XX c #D9CEAB",
"oX c #DCD1AC",
"OX c #DED0A5",
"+X c #CFC9B2",
"@X c #D5CDB2",
"#X c #D8CEB1",
"$X c #D7D0B6",
"%X c #DBD2B3",
"&X c #D6D1BA",
"*X c #DAD4BA",
"=X c #DED8BC",
"-X c #E2D2A4",
";X c #E3D5AB",
":X c #E5D8AE",
">X c #E9DAAC",
",X c #E1D7B3",
"<X c #EADEB3",
"1X c #E0D9BB",
"2X c #E3DBB7",
"3X c #DAD6C5",
"4X c #DDDAC4",
"5X c #E5E3CD",
"6X c #E9E1C0",
"7X c #E7E7D4",
/* pixels */
" XL.F.*XH.P.%X^.l.i..XD.E.E.E.E.}.M.M.%X' R.Y.Y.+.X.X.d.R.R.}.@.).}.Y.R.R.OXX...{.H.&.&.3.Q b B.C.V.=.:.l %.<.1.-.-.o.b.C.W.J.J.",
".Xw.Z.H.S.F.l.l.D.b.}.{.S.H.E. X}.M.t.R.i.+.,.+.O.t.R.OXoXXXm.K o.b.a.@.x.,.U T Y U l $.V.B.4.:.^ &.&.$.-.4.c.B.z. .u m.~.~.W.^.",
"E. Xi.a.H.{.l.e.t.O.}.R.S.a.G.'.M.@.M.(...h t.$X~.X.V a.oXXXo.P O.T ......> h @.r.( W 3. .:.<.Q v k *.&.} i ! ,.N.V.w } M.R.J.W.",
"w.F.a.'.D.S.S.H.b.| D.~.M.H.'.E.a.t.t.t.r.XX=XR.t.@.V R /.M.,.b.%XoX%X/.OX4.5.T.Q.J.-.&.&.1.1.B.U.N.:.<.k ^ l -.k.c.! ! o.W.(.m.",
"S.a.S.H.Z.O.S.S.b.( t.~.R.{.E.S.R.a.t.@.T a.M.M.M.M.A.B i.W.+.i./.{.{.Z.~.T.Y.M.W.i.I m.c.1.c.c.n.^.(.n.%.z.Q.o.,.o.j m.m.D.W.M.",
"Z.w.F 0.N ( F Z ` : N t..X.X{.S.i.R.a.a.U ..@.@./.|.}.R.| M.T ) }..X'.M.E.%XR.{. XD.o.m.m.v.|./.z.^ W. .L 1.^ -.^ 0 p Q.b.{ k.e.",
"w.` 0.'.@X&X&X3X3X$Xw.O.O.r.w.+.r.a./.~.R.a.@...M.;XoXR.t.| +.] E..X4XXX.XE.E.r.w.| Y 9 I Y g 8 K g 1 X - w.[ V K j t A.@.Y _ { ",
"f Z.OX.XXXXX4X4X%XXXj.] w.q C ] w...A H ( a.M.@.+.M.|.|.A.W.x.w.D.M.R.a.M.R.w...a.` _ t.w.] # D 8.L.y.].1X$X%XS.k.-X~.'.H.V ] F.",
": E.XXoX/.E.}..X X%X Xx.x.W.oXS.M.0.7 b < ..x.@.@.+.t.W.W.S.R.( M.D.G.w.T M.w...{.a.@.oX&XoXoX<X:X>X6X1X5X%XW.b.D.~.c.(.oXD.|.-X",
"R.D.M.x.E./.{.].XX%X X~./.{. XR.R.a.n #.#.+.M.M.t.@.O.+.M.M.M.U +.O.E.Z.a.b.O.O...w 5 ..r.E.r.1.J./.oX=XXX|.{.H.+.J.n.n.D.x.+.C.",
"+.,.Y.,.R.}.}.}..XXX'.Z.oX{.D.M.R.M.a g k O V @.T t._ j u | w.h X.R O.{.h.w y u.D.i...a.a.> S W.H.{.{.oX/.}.oX.X{ x.XXA.~.k.>.m.",
"U N t.@.@.X.@.R.XXoXF.a.@.x.E.m.v.T T !.M.M...@._ h w h +.Z.8.o _ ) U 0.w j M.oXQ.Y.;XoXOXO.] W.S.%XOXXXH.D.~.'.] { x./.A.{ +.x.",
"Y O T 2.O.M S % S E.C ] R.D.{./.R.M.1.U.).|.`.N.m.n.@.K 5   K [ F.'.I.- ,.Y.Y.o.Q @.R.2.a.}.t.(.oX.Xe.b.#XH.'.h.l.;XH.n.R.r.~.x.",
"o.&. .:.5.U. .E +.X.h V S.Z.t.a.i.> o._.<.c.<.%.2.W.t.K Y h n.c.@.D.oXO.Y.Y.m.o.W Y.R.M.}.S.a.R.t.t.e.e.[.*XG.i.Z.^.K.|.,Xt.o.;.",
"2.3.b b :.3.:.&.U.Y.3.Y.R.V ..0.W.> I 5.c.I n 2.!.+.T o.{ { M.x.m.b.E.h.@.:XR. .v.o./.XXY.M.( U ) / e.P B F.i.Z.N +._ P P p C.m.",
",. .=. .*.:.5.U.4.o.;.1.n.Y M.Y.T.T 1.U.o.v.4.Y.(.t.{ n.@.{ D.n.D.E.=X[.o. .Q.m.;.W.~.oX~.x.% - U V ) f t % [ ) w i.O.p B N V.~.",
"I k B.&.E Q B.E W U.@.g o.R +.@.Y.T ~ R.R.T.T.U.2.b.x.n.e.i.{.H.E.S.Z.'.x.E ;.J.C.m.~.E.t.v.= O.m.m.m.,.| { XX/./.}.Q.N.-.o.-.c.",
"~ Q -.4.&.;.E 9  .o.2.2. .T Y.@.X.T R.R.}.v.1.@.m.c.m.n.b.S.}.R.}.'.b.w.k.(.n.-.1.o.S.M.t./.A t.n.A.o.x.k.b.n.E.oX{.A.c.m.u ) ) ",
"E ~ 2.1.4.,.c z g c W 2. .X.R.a.Q.@.M.a.R./.R.Y.x.~.x.M.Z.F.D.~.H.'.i.p.) ~.>.,.`.OXD.A.@.R.O.+.K.D.l.k.t.p.|.J.XX}.XXb.C.C +XXX",
"I n.x.Q Q x E Q ~ l g o.T. .@.T @.X.a.G.E.E./.R.D.t.X.c.a.S.XXoXH.a.i.'.p.k.o.C.c.C./.M.M.R.X.t.b.l.z.n.D.( |.D.W.~.t.,.J.] K.~.",
"+.Q ~ E &.c n N.o. . .o.v.@.Y X.R U .X|.{.a.@.@.E.i...t.Z.M.E.G.S.Z.H.S.r.I c.Q W W.%XoXR.,.o.,.,.N.B.,.X.Y J.D.b.} l.x.c.K l./.",
"O i %.! i Q 1.C.Y.U.&.W k I j ,.Y...].~.E..X@.O.R.t.X.M.S.a.M.G.Z.Z.Z. XZ.>.;. .c o.+.~.R.M.t.2.1.z.<.c.,.( /.^.{.A.x.} ^ } t.|.",
"= 5 Q E c <.1.2.B.b $.:. .~ W x.v.P a.a.a.M.a.R @.R.j j ( S.R.R.S.w.S.E.r.,.|.;.Q n u 6 O.~.V 7 z z i R - & k.A.O.+.J.C.N.,.m.J.",
"(.A.L W 4.B.Q <.&.$.3. .l X U X.T - j X.R.O.O.2.o.@.Q.c.O.a.R.M.t.M.a.r.f 4 9 < 9 u w q X * R r._ k.b.e.Y h t.M.M.+.} x.-XK >.J.",
"<.D.K a c 9 2 L z  .6 w u.u.a.r.U y j T j V { @.o.,.Y.X.( M.t.H H 7.i.Z.C N X...i.b.H.l.t >.c./.W.^.^.|.).o.p { n.m.W.n.C.I b.J.",
";.o.V P r Z [ w.j.{.S h.OXoXXX}.:X@.M @.h O 5 $ $ V V T / S ..A t.D.c.|.X.+./.OX|.D.H.S.` x.c.W.C.~.m.W.|.k.c.} R c.{ o.K O o.V.",
"N.m.Z.$X*X}.K.K.R.W.@.i.b.S.oXS.a.@.@.T.Q.Y.& ( E.@.R.j.t.N X.X.x.m.m.@.T R M.O.[ U N O.U Q.v.W.W.}.W.Q.).Y w P h & w U 7.f Z c ",
"V.{.w.P.G.S.m.S.E.M.t.a.R.~.b.t.@.X.T Y.v.,.R v.R.v.Y.Q.<.V R.@._ @.n.c.K 5 5 5 p w B 5 V oXD.M.W.~./.^.T.| G Z.Z.C ].]. X.XP.e ",
"k.n.e.S.P.D.n.K.'.S.b.t.b.O.t.t.@.A t.v. .v.K @.,.o.x.M.2.X.,.t.X._ X.X.t._ @.R.D.D.W.D.( D.R.v.~./.M.E.,.+.S.}.P.y.P.XX*XK.@Xf ",
"! L / H.P.D.A.J.{.M.t.U @.a.M.M./...a.1.2.1.V ,.o.@.x.R.+.T X.+.H.D.i._ X.+.~.E.R.W.D.}._ T Y.2.W.E.x.R.D.{ w.{.P.p.P.P.XXP.[.L.",
",.x.[ H.G.D. XD.H.D.k.i.E.S.b.H./.@...2.Y.Y.@.R.R.R.M.@.M.T +.m.m.D.a.a.B w.XXR.W.b.XX.Xb.x.t.m.D.D.t.t.K.[ Z. X#XP.P.P.#X|. X*X",
",.,.p.H.P.P.b.K..Xn.) S }.R.t.w.....a.Y.2.Y.@.a.R.R.m.x.x._ @.c.@.) a.S.@.t.M.R.R.E.{.'.a.Q.D.M.S.E.S.+.A.Z F.#X%XF.G.%XXXP.P.&X",
"-.;.{ H. XH.J.O.8.8.G y V ( ( h U V ,.@.I U S a.t.R.R.t.X._ x.@.X.O.a.a.@.X.X.~.~.~.|..X/ >.,.} Z.S.b.S.R.C y.E.D.` f. X.X}.{.#X",
"Z Y - y.y.u.( D I.$X%X] 5 h ( t a.R.j R R.( F /.R./.R.O.T R T @.O.O.E...t.x.@...A.K.Z.S.e.x.n.l.Y ) { Z.p., D F.'.h.h.Z.S..XK.P.",
"m.m.n.c.( 7.].7X%X'.j.w.,.).(.Q.T.U.!.!.Q.o.X.r...U ..@.T R @.O.t.w.i._ U ( k._ e.9.Z | F & | F # F.'.@X@X.X X'.'.E.h.H.F.F.H..X",
"4.J.N.<.c..X=XF.~.*Xa.a.X.c.W.Y.<.o.T.4.o.<...'.s...H > ..& N S q h R M : f V q / ( F ` F ` F.d.D oX=X=XoX X'.H.H.I.' '.l.l.d.7.",
"N.^ :.-.W y.].H. XZ.F.XX_ 2.C.1.X.M.4.v.2.U.h..X@X+X'.].4X$X@X%Xq.j.'.j.'.*X'.G f.l.F.f.S.D.G.f.f S.E.R.'.'.'.G.S.+Xf D.F.P.K.K.",
"N.<.-.^ ~ S .X].S.F.#X'.@.2.I o.;.4.v.o.@.2.a.R.t.R.E.a.E.R.@.@.j.@XG.i.H.R.'.G.P.G.Z.l.F.F.L.F.d a...Z.H.S.H.'.w.9.] Q.}.oX).Q.",
"N.N.%.^ W ( $X'.E.'..X$X..k L ,.c.;.,.t.@.o.t.i.t.i.X.f.M.O.a.{ _ 0.Z.Z.w.S.+Xj.p.F.F.F.A.F.H.H.C L.0.a.M.i.F.H.S.F.p.Q.K.K.~.|.",
"-.^ 1.6.W i..X'.'.F.a..X` g 2.x.c.o.+.v.4.@.O.j.r...a.a.r.@.@.t.r.w.H.'.F.Z.%XI.p.l.Z.A.A.F.F.S.H 0.w.i.h.F.H. X#XP.e.n.K.}.K.K.",
" .-.Q &. .9. XG.i.F.XX'.] o.Y.@.X.o.x.t.;.x ..S.u.i.G.a.a.t.i.R.r.j.F.E. X'.f.F.F.G.@XP.b.P.S.S.` 7.#XP.P.P.P.P.XXP.) OXK.| b.A.",
"Q &.:.<.%.Z.F.7.w.F.h. Xa.,.@.c.c.o.o.,. . .( a.R.a.a.S.R.a.R.R...L. XE.H. X&X Xd.H.L.L.F.Z.Z.P.Z.F.1X#XP.Z.D.A.S.Z.>.K.A.R { k.",
"&.N.4.3.;.[ 7.p.P.G.P.L.p.+.o.,.x.,.@. . .,.0.E.G.R.R.Z.O.a.~.Y.] j.{.'.G.i.L.[.y. XZ.h.S.Z.S.P.u.9.P.K.P.P.P.A.p.Z.K x.D.K.K.A.",
"%.n.N.B.-.p.P. X'..X X'.q.I >.x.@.,.x.X.;.1.u..Xj.E.E.u.R.R.R.a.` j.'.j.i.d.S..X7.l.F.L.Z.H.P.S.Z.7.l. XP.%XP.F.P.F.R l.k.k.XXK.",
"~.N.-.N.-.F. XP.'.'.G.XXd._ c.@.x.x.,.X.c.o...a.E.$X X XE.b.t.M.J j.p.w.d.f.F.L.s.i.P.G.L.H.P.F.L.L.7.S.XXK.P.H.#XP.k.e.l.K.D.l.",
"Q.m.4.T.^ Z.*X[..X X].].d.t.c.,.x.,.+.v.v.+.C a.E.'.Z.E.E.M.@.t.q.u.u.] w.w.y.Z.Z.P. XP.}.P.P.{. Xh.u.u.P.H.P.H.P.l.>.z.A.K.k.l.",
"{ ! 2 $ . G #X$X.X X XP.h.t.C.n.o.2.o.o.c.o.V i...f N H ' m A N d h.L.F.i.F.F.f.F f / f r ( 7.G d m  X7.[ F.f.9.p.p.k.k.z.b.K. X",
"XX.XH.P.{.u.Z..X%X$X'. XG.{ 2.,.c.@.c.,.;.I X.c.M.r r.'.E..XXXM.w.Z.h.F.'.F.F.Z.N o.@.o.t.k.@.8.` f f r r f 9.9.K.7.o L u 3 p ) ",
"XXQ.(.|.XXK.' y.[ w.` F d % j V Y R ~ -.-.z Y @.M.] b.{.~..X=XE.k.'.{.F.P.P.i.G ( -XQ.B.B.V.Y.-X:Xl. XL.Z.y.y.Z.f f J ( 9.e.+.- ",
"n.n.C.C.W.Z.C o.~ o.+.b.r...- % U ( N h K j ~ m.x.O. X}.~.{.~.~.[ w.p.w.P.p.e.Z N ^.c./.B.C.~.b.k.K Z.P.P.H.S. X= | ).}.z.z.J.P ",
"b.A.m.W.b.b.P c.^.Q.C.(.c.C.C.~ (.-X|.n.i.Z S _ _ A %X}.{..X.X/.J r e.t.} c.N.>.U /.C.m.D.W.J.Q.-.{ Z.H.G.f.p.S.` A.n.b.} } >.e.",
"Z.n.C.M.k.Z.b.J.Q.C.C.J.^.c.o.k.m.k.;.~.|.m.c.R.t > oX.XXX.X'.'.i.-.D.} z.Q.c.! x ,.n.m.M.~.W.1.z.[ f.Z.P. XS.H.F l.J.m.n.} >.K ",
"w.,.x.X.O.e.i.(.C.N.C.b.,.J.+.,.c.x.J.J.z.J.D.c.,...XX[.$X.XE.S.( -.} C.n.b.C.Q.R X.E.~.D.~.c.>.,.| H.'.P.G.G.l.9.k.Y n.J.x.z.{ ",
"O.t._ Y { O.O.m.N.C.C.n.H.J.+.o.c.>.k.C.z.x.,.A.o....X].E..XE.G./ } | >.! k.m.Q.Z a.W.M.H.k.~ o.-.+.G.Z.F.S.P.P.7.e.e.J.J.m.z.} ",
"O.[ Y h { k.k.D.J.N.C.,.Z.A.+.j -.} z l.A.K.A.k.+.u.E.'.].{.E.a.I -.E } ,.@.@.o.T t.@.t.k.t.>.c.n.9.P.S.P.{.#X=X9._ x.n.J.J.D.>.",
"..X._ +.o.M.i.k.,.N.o.k.k.,.O.i L ~ m.K.~.J.K.z.X.0.].@X.XE.R.R.p.k.z.k.e.b.V p @.,.b.R.J.~.C.z.z.[  X'.#X1X#XP.l.A.b.b.k.} { k.",
"( | O./.W.A.w.i.n.o.! k. XoX} K N.} >.m.z.>.D.m.O.h. X.X X XR.x.o.l.k.K.Z.A.D.L T z.k.w.{ >.c.,.z./ Z.G.P.P.P.F.9.l.Z.P.l.Y u % ",
"Y O.J.K.~.t.r.'.#Xl.x | XXP.| @ L { K @ u K I ~ X.X.D./.~.R.W.X.K k.n.l.A.n.l.A.b.| k.Z.U T O.k.9.f f.G.Z.y.9.9.Z } l.9.! } Z.s.",
"| l.K.D.l.H.e. XP.k.>.n.P.Z.Y p ! 8 u w 1 t T >.y O.] ] E./.F.` ! ~.}.b.A.A.A.K.l.N | S Y p [ ] / f 9.p [ p p p.p.P   7.F.P.P.%X",
"` N % q P @.q % K K } l.A.>.| } <.N.B.!.J.o.k.K.w.D S & ( i.v.e w k.K.D.A.b.|.K.k.Z.H.9.p.p.D.F.F.K.l.} J.z.z.K.|.o.g.7X*X#XK.F.",
"y.u.8.. ] D.Z.` B K ) j B U Y } -XQ.4.;.W %.;.U.k.= r.O.T u x N / K } l.k.l.k.K.k.l.b.K.D.l.l.l.l.P 9.L z.! ^ >.C.L 9.P.P.K.P.G.",
"8.Z.F.Z k.+.m.-X-X).|. XZ.9.# ,.C.J.N.C.o.<.1.1.t.n.`.m.Q.v.D./.>XK.@ [ L { { e.Y & } K q l.D.9.| k.K.) } z.z.>.>.L / F.@XA.K.F.",
"d.Z.9.[ k.@.{ ,.c.~.J.K.}.-X( ! -.>.<.,.Q. . .o.o.+.2.n.C.c.C.z.m.B.@ / | ! L ! k.+.z.-.+ F.A.e.e.b.A.[ L } } z.} i l.@X*XA.A.K.",
"{. Xf./ ~.~.k.o.c.,.m.J./.|.) E l { -.-.k.1.<.B.;.T @.v.>.N.<.m.x.B.k.K.J.b.z.k.} k.^ -.S l.| +.z.b.A.| } z.z.-.N.} [ XXA.F.l.A."
};
