/* XPM */
static char *STONE_WALL2[] = {
/* columns rows colors chars-per-pixel */
"64 64 65 1 ",
"  c #060608",
". c #09090B",
"X c #0F0F11",
"o c #111113",
"O c #171719",
"+ c #1B1B1D",
"@ c #1E1E20",
"# c #232325",
"$ c #262628",
"% c #2B2B2C",
"& c #2E2E30",
"* c #333334",
"= c #373639",
"- c #38373C",
"; c #3B3B3C",
": c #3F3F41",
"> c #403F44",
", c #434344",
"< c #464648",
"1 c #48474C",
"2 c #4A4A4C",
"3 c #4E4E50",
"4 c #535354",
"5 c #565658",
"6 c #58575C",
"7 c #5B5B5C",
"8 c #5E5E61",
"9 c #605F64",
"0 c #636365",
"q c #666669",
"w c #68676C",
"e c #6A6A6C",
"r c #6E6E71",
"t c #706F74",
"y c #727274",
"u c #767679",
"i c #78777C",
"p c #7A7A7C",
"a c #7E7E81",
"s c #807F84",
"d c #828285",
"f c #868689",
"g c #88878C",
"h c #8A8A8D",
"j c #8E8E91",
"k c #908F94",
"l c #939395",
"z c #969699",
"x c #98979C",
"c c #9A9A9C",
"v c #9E9EA1",
"b c #A09FA4",
"n c #A2A2A4",
"m c #A6A6A9",
"M c #AAAAAC",
"N c #AEAEB1",
"B c #B3B3B5",
"V c #B6B6B9",
"C c #BABABC",
"Z c #BEBEC1",
"A c #C2C2C4",
"S c #C7C7C9",
"D c #CBCBCD",
"F c #CECED0",
"G c #D3D3D5",
/* pixels */
"uyyyyeee0hh2DASC72:<2&*0nNjm4<e0uhlpyddyhczcMz8zFBCn84e73*:dclld",
"yyyree05emu%NDCDB24,=3&*pMvl3,50fppdpyphzclznz4pCCACle4742=3pzzp",
"eeeqq075hBq$yASDFN7,<:,@,jMh4<4ehyyapepzchhznl34nACBAc0440,*8lnp",
"q000750emnr;,cDCAFN7,2*2&emh4<7pppyyydhlhpfzcz43dCCMASle405,2pcd",
"q57854qhMzu:=rBVAZGM7222;2lc4<epypuepllddphnll747cABNCBce547:8ld",
"844754yccnr%<4pCBDBGM55;3:yc3<yuyyyphlhdddzcjj447ynBNBCBl848<4hd",
"445450plzmq#224zMBCVDM74325l53yyyyuhldpppdhlhl4407ycMBCBBle855pd",
"25745epazc0=;<<qzVBCVVB7,42h87ypepdhhdpyuppdhz44480ulMNBBCh8740h",
"434578qufcq$;:475dNCCVBBq<3p2eppudhhaeee7ypazc33457qrdvCNBNle70p",
"4323338qdce&<<3<53ecCCBBne,epp0phhauye72777ehl32747770yfnnNNd87r",
",:;;;,35qjq%;;,,,232evAACn7<8pphddy03,,<4470dv7,33343470hjnCMdee",
"==*;;:,,<ae&=&;;;:,,,,7pmVVp8yd8e4,*;,,,=;,,4h7=;;:,,,,<;28plcfr",
";;;;;;;,:y0=3,,:,;;,,,,,3qdde0ye7777433477070hyeq000807770qydljp",
"aaadddhlnMp4ahjfhzlhhmnlhhppdy45yplnMMmmMnMCNnuzMMmvnnMnBmczhpdz",
"7qphlznNZM8&0ujcnvMBmdydyhpafny<,;*4dmBBVVVCBl3evMBCCCBBjfdpyphn",
"O&5ajcnBNn5%58plcncfyypuppph0mmr22,&+=pBBCNccl47yhMBBMzfpdpyplnc",
"%&X$pvlncn2%25qudappyyyyupyh8hMMy<2==&o,hmjjxs37qydjxkgssaaagxbx",
"*#%$$0cjcv2%,28rapuyyyyypuyz5rVmBq;4;%=#,ukfhk<18qydgsaiaasgxbxx",
"%&*#.&rjlc3%;,8epyyryyyyuryv42CNVmp;<3#%O:ffhc>150ydssaawagxxbxk",
",*%%$O;fzz3$=<ruuyrryyyreqfv4;cCBMCy:4:;##5fxl>130dhsattaskkxbxk",
"f:$;&+&4ln3#;5uayreryre00ecc5*eVBVmVa=2,:#%rkk1>3edfpyatgkkgkkkg",
"Nf,%*%@*dn3@<0yyrrerrrq8epml4;<lBZmBVr<,,=#4gk6:8ydprtpsxxgaskkg",
"BVa,:*#&7v5#4rrereeeqq00phcc2::qmcZVvBf,<2=:ag6:yppyrpgjkgaasgkk",
"NMBh;*<$;v7$7urereqq000qfjhc,:3<yVmVZNmu22<=ak:1yuurudjgsaaasskk",
"ZMMBh<%,&a0*rerrr08888eyphzz2=247pvBBNNBa>1>1x16aaaaaaaaaaaaaagk",
"NBNMnh7%*04;yyre08000557yahl2*,,25ylNVNvba11>a166aaaaaaaa9996akk",
"jBZMnnp<&7r20ye70087557qeyfc4*:2323ejMVBNba>:aa9aaaagaaa36696agb",
"*8lMBMch;;070y0qq74<::<340pl2%:232,,4yjmxVka>66a6aaaaa611:113aam",
"3**0zNMnf<<0re37<,,:,,,:24ej5=::,<2<:<5exbbba11aaaa661>->>>116ax",
"&&*&#%5hzy00373<***&%**&**:e,==%&*===**=->aaaaaaa96>>>->-----:6a",
"4447qr040yre<477ypprq0qqyyph75ryyrrypaapaaaaaaa69aagakaaaaaaaaag",
"llljhpye077j0**23rjvnmNNCCBn54dvvmMNBNmvaaa66aag>>>6axVZZZVZZZbk",
"hdpe0777044lM4:%#@%3dnmnMVcj2*4yhlcmvjpreqeurd7nh2*,*$,emMNmvpll",
"yye77707,74pBh0&&#++*7fnlhhl<&37yaffdpyeeeepyd4lvj4&,;@$,ejjhplj",
"ee0777742e02BBl0*%%@o+2phyfc,&228yppyrreqeupuh2ujvu<<:%*o%7ydpcl",
"007774424yy%NNMl4;&=$o#,dplz,&,<7rdprrrqeeyuuj,7vccd2*;:&@&4pdnc",
"777774322de%hBMnl7&$*%+o5pcj,%*20yayeeeqrrerpz:,Mcczy3:&,$@&7dNl",
"774442,27n4$4CCMMh7%#*%o$qcj<&%4ypye0qeereqrdv;=rcchca2;;**@;uVl",
"77442,,2pM4#%lCBnMl8=&%%+,hc<&*0pyeq0qeeeequhv;*2lmlch04=;:%%7Mc",
"7422,,47pl7$&4BBBMcf8*%*@#dv:%<yue0qeeeqqqealv;=;qccjczu2=;=%:lc",
"442,,27ypc4@*;0BBmmmh5***@<M<%0eeqqqere05rryzc,==4pczjjcr2&,;%rM",
"22,,220ypc4@&*2pBBMcvlq*;@*z,%qyrq0000085ryulc,=;,7plzlhzy2:=&0c",
",,,2240epz4+&*=4unCMvvf7;*;y,<eeqq0qee085qeyjc,&;:,7plljlhr2;=2h",
"2,,2227qyl4+&;;,,rvBNnlh5,*74700770qq843450rhc<%:,227yjlhllq4;;p",
",,:,,,47yl4@%;:<3<7dMVMvh4%2777yeeq074,,235efv3%=<3<<5rplccdr4;0",
";***::,20d4@#&;:,,:3ehcnMh7:,0eqq052,,,,,,25rj2%=:<<<233ppfllp22",
"******;,<e,#%**=&;,=*,0pfcj4,0e32,;*&*=;;;,,4p<*;;:,2,,,<70pjfr2",
"*******;*5:%;;;*,*&;:;*;30hd03343332,,,,:,2,,r2:2,:,<,,2:4250plr",
"yypyypdflMy:ydddddhlczljdp5rye,;3ehnMmclcvnmcn4rlzvnvcccmnlhdppp",
"2yhhflvccm0#30phlzclhpyr4yr40jr;&%%;0lMNnnnclc;,yhnMMNMvhfpyyyrp",
"+#,0pddhhv7+;20ypfhdy07778q48flr%%%#+$7hllhhhn=%,0adhlldpye0eeep",
"@oO*8yyddc0+;;25qeyeq880r33ee7cce:#%%++*qpddhm:&:370yddpyr0qyryd",
"$#+o%7yyhv8o%*,4eeqq0888453pe:njv0%#*%+o=8plln=&<<30pdppee0eyryh",
"+#@oo@5phn8o$&,5yeq00075243h0%lczlr;@@#@o*0lnn*%*;3yhpe00q0errav",
";@+%+X%ydv0+%&28q0777743725c0+eBlld8,*&#oO;pnm*&&<eddye00qqerrfN",
"e;@#@oO*dn0O$%4p7877743232ym7#,cvccj0*#&&o#ecn&*&5ppq80rqeqeeehB",
"ce=###+O0N0+#20875554323,0pm8#:0Mzllh0,#*#+%cm*$=epeeq7eeeq0qylm",
"zlr=+#$O;vyX$5e4854432,22edM7@&,lvnllf0*$$%@rn;$2ypqrq8eqq80edcM",
"hvce=##$+ddX=80474322,,<7rfM4#&*7hmzhhhe;**+2n,$8py0qq8q0870edcN",
"Mljjy;#%#0d+25583222,,220rfn2@:=:0hnchhhq;%#;c,*eyq800887778edzM",
"Smhlhy:#+<p$552732,,,,237qdv,@;*:,8hmvhph7,*$p4:rr0000875447edlM",
"pnNlhlr;@;y*775,2,::,:,240pn3+&*,,<7plcchdq:+584re0qq07543370ylM",
"*elldhdq:&7,734;,,;;;;;:,5el5#%*;,,;<0fzdld0=,08e8007432<,<370dn",
";$=0dpphq%248:2<:;===*=:;24d4##;=;:,,,37dhphq;8784573,,:,:,,24yl"
};
