/* XPM */
static char *_db9151c14db4e1288423af780e1449agnJFDVo8hTvt9gID[] = {
/* columns rows colors chars-per-pixel */
"64 64 57 1 ",
"  c #BB8952",
". c #C08E58",
"X c #C2935B",
"o c #CA9A65",
"O c #C59D6B",
"+ c #CC9E6B",
"@ c #CDA16D",
"# c #D0A36F",
"$ c #CBA373",
"% c #CEA97A",
"& c #D2A674",
"* c #D4A876",
"= c #D4AC7B",
"- c #D9AE7D",
"; c #D7B17F",
": c #DAB07F",
"> c #D6AF80",
", c #D9AF80",
"< c #D6B384",
"1 c #DBB384",
"2 c #D6B689",
"3 c #DCB689",
"4 c #DDBA8C",
"5 c #DDBD92",
"6 c #E0B789",
"7 c #E1BA8D",
"8 c #E2BE92",
"9 c #DEC196",
"0 c #DEC29A",
"q c #E3C196",
"w c #E5C59B",
"e c #E8C69D",
"r c #E5C89F",
"t c #E8C89F",
"y c #E2C7A0",
"u c #E6CAA2",
"i c #EACBA4",
"p c #E7CEAA",
"a c #EBCFA9",
"s c #E7D1AD",
"d c #EDD2AD",
"f c #F0D4AF",
"g c #EED5B2",
"h c #EED8B6",
"j c #EEDBBA",
"k c #F0D6B3",
"l c #F0D9B6",
"z c #F1DCBC",
"x c #EFDEC1",
"c c #F2DFC0",
"v c #F4E2C4",
"b c #F5E5CA",
"n c #F7E8CE",
"m c #F8E8CC",
"M c #F7EAD1",
"N c #F8EBD2",
"B c #FAEFD9",
/* pixels */
"jxxxxxcxxxxcccncvbvvnnMNNbbbcMccMnnncnnccccccbbbbbcbccccckllfggs",
"xvbbxxnxcnbnNMNNnnnnnxchgu8uaafkkkkkckfaieiiaaaffadfaiaiiew8533,",
"ssphjxxxxccxccxxjhgdpigadadlllkkkdaity76888eeiaideeeee8768888788",
"yyyyuiasgdsddaaiiuyaagghxzzcccclclllfdiiiiififfffffaiie8666638w0",
"00y5yy00eyyyiippdddgkkkgkkkkkkfkfddaddflkkckkkkfddfaaiiei8884785",
"0y5y0yyyupasgkfxzczzzczzzcclkllkkkkkkfddfiiee8e8eeeeee8878888858",
"yyyupsggfffggkflllklhkkkdfdaadlcxxfpwwweeiaiafffafiaiiiii8i88yy8",
"ppshgggsgsdasgklklzzlkgdadaaiadffdiweiaafffaffaaiieiiiiiaui88y87",
"gjjggggjxhxxxbbbmmvbczzzllllllgldafffflllfffffaafiafffiii8888ee8",
"xxxxxbxcvbbbbnnnNNNNNNnmmvzzlkdddaadffffflfffffaaaafaffii8eee8e8",
"xhxxxxccbbbbbMnnNNNNNNNBNBBNNmmmbbbbcbccbccckfffaaaaaffiaaaiiiie",
"ssghjxxxxxxbcccxcczjzzvcvvvvvmvvccbbbccxcbcccccczlzzzcczzlllgkgf",
"yypsgsgdggfkcffdddaiafdgfffddddfafdaieeiiiiifaffffffaaaii7eaaddd",
"yppspssgghlxkkfxhhkhhhhhlkkhkkzllfffaaaaiiiiiiaaffffffii88aaiy88",
"uppppgsgsgapaafgfhhkkkffdfaaaadfffddffffffffffffafffkfkfieiy8788",
"55wyipapggllxccxzzvvvvvvvczzlzzvccbcccccccccccccccczlffau88iiaap",
"y8yyppdggghhhhjzzzzzlzlllkfffdkklffffffiaaiaeieiafafffffffffaaii",
"55550yyuuppdggdgdddddddfadddfdfklkaaii8eeeeee8eeeeiiaaeieeiii888",
"550y8wyupipapdaiiiiriiaitiadddddllflflzfkffaaeee888e8e8877888888",
"gsgshhjzjzzzzczczzzjzzzllhlhllzzcccccccccmmMmmmcmcczlfffi8887777",
"90wwpapwwuiadaddddaddiddfgggffggffffaaiffaafaaaffaafaffaaaagddae",
"OO2yppyw99wradddiwqrwrrdggggdaireei8iee88e88e887611,--6877888883",
"2245w554999wuurw9idhlllzhzzzhzzjzlkllkkfkffaiiie8eee8888w76,,%*,",
"444245wiwwwwwuugzccczjzzzzzczzzjzzzzlccccccclcccczllllcllaat8<$o",
"ypssssggsshjccbbvvvmmvzvvvvvvvcccczzzzzzczlcllcclllllckklfaiiii8",
"vvbvmmnmnmnNMmnNmmmmNmmmmNNmmmmmbbmbmnMmmMcmmcbccccccccccxxlfgdd",
"jjjxxcccccvvvbvvbvbvvvvmmvmvvvvmbbcbbbbbMcbccbccccccklcxllxllhll",
"hhhxcccvvvvvvvbbvvbbvvvvvvvmmmmmbbmbcbbccccccffaffiiaaaitieey80w",
"ssdhhhjjjjzcccvvvvvcvvvvvjddaadljjkkjjzzcccccccklkclfifadaaittew",
"<<3499wpsgffgdddgddaaaafaittrtiq816wiifaiaee8e8eeeeieeefddddaite",
";<449qqraddiurttrrrriddaadgadait88efi8866877778888788888788tietu",
"<<49qqqww99999qq9wriddairq99qq9qafli878e8e88e88eeiieeeeeeiigfdai",
"44599qrrrrqrqqqrrrtttrrrqq4;;48flkf8eifee888888888e88eeeeiieei8,",
"99q999rriitaddadiitttrwrrrrq8tttdffe8weie8e887777888867888e87*++",
"rrriidgdlffhllhdddatfzrqdfffditr88wee888888e8eeiafkkkfaie88888w*",
"qrrrrrrqqrqrriiiiddrdl*rfffffffdafaffkkllkkkfaie8e888iiiiafe38i$",
"9rrrr9rrrrrrqrrrrriidd&rdrdaffffkzzzzzvvvbbvzczlzkkaie881,,78183",
"padghlhlzvcczvzzfrrifa4urdllzvzvvvvvvbvvvvcvvcczlzlzczzjduy368w8",
"@4srq9444qriaddghhddfataafflllllzlkkfikkzkklkkfffafaaiaaiiia88yw",
";9hd9qqrrrrrrridddfdffffartttqrtweew6,aiaiaieee8887766,6=&&&=&&&",
"99sgpr9rrprriraaduiaaaiadfddatttweewq7afiataaiteeeitiieei8886676",
"urrpddpidraaaddddaudaaarttttttiiiaiii7eafdtq78etieeee8eei8e88888",
"099929gghhdhggggfghzzlllfffffdatiiiiieidffaq668qetetiiiiiieeie88",
"2;2@9hzzzzzvvcvvvmvvmmzarqrqtqqqqeqetteetitte887888868888888666-",
"9%%rhggghhhhzjzzczccvmmzqqqrrirq8eeeweeweq:&1qtte8776:66677,*#+o",
"92sjhhjjcvcvvvvvvcvvvmmmlrqr1qdt7-qq88q766666eeq8788887778876**,",
"2shshhjhjzzzjczzzzccvvvvvlq18raq78eweiiaaaaitq777776-:616666-*--",
"29999rpppsgsdssddgghhhjzvvvrii48qqqwwewwqq766888866616:678876,-#",
"2<22595555999rqridiiiudhzzzvzhhhkllllzzllzlkkzzzkzzkzzllklkgaiw5",
"999909<24599rriiirrigddddfhhhzzzccczzzzzlzzzzlkkffffaiaaaaiuiaui",
"<999rrrruuurriiiudpghzgadddffhhhlzzzcczzzvzllzlllkfffffakaiiauii",
"90rurrppdghhghzzzjhhhhhzgfffffhgkllllkfdffdfafdifateiiuiiiiieiwy",
"hsjjhhhhhhhhhhzhjjhjhzzzzzzzzzzzlzzczhllklllllhgkkkfdae8q3368www",
"sssshshjjhhhhzzvczzzzzzvczvzcvvvvmvmmvvzvzvvvvmmvzlai8663116,30w",
"0rruyr0999rruipudiupddffgghzzzzvcczcvzzlllzlddqq6-=-,686*7w11=*$",
"0r0999224;;44444;4;4;;::44455qqqterrrqtq99:=*==:1668887***=:362=",
"%%<;;;2<2;;;;;41;444444:676qewwweqrrrqq9474q4qq4646771*o .#o:91:",
"<%;<<2554959rurriirddaatrtwttiddffffffatdiitqqqttttteqq4<3w47973",
"299r999r9r9qriaiairrtqqqqqqteqttqtiiiaaadiiitittttwweeqq8q84441:",
"599rrrrrruuddarrqq55q8qqqqqqqqqqqrifddattttrwwwqqqqqqqq43331;1;;",
"O%%2599999544;;;;499rqqqqqqqwwrrrrritttrrrtttrtqrrrrqwqq91;===*&",
"900yuursdpur9rrrrrrrrrrrqrqqqq949qqqrwrttrridiiitrqqq41;**#@@@@ ",
"29999999qrripdhhhhzzzzhgddfgrq44q93;3qwq44911;:1::;;::;;**&*#@@@",
"29295599444999994444444595qwq4qqq13;;3diq14441111:::6664333:99;9"
};
